<?xml version="1.0" encoding="utf-8"?>
<!-- Generator: Adobe Illustrator 24.0.2, SVG Export Plug-In . SVG Version: 6.00 Build 0)  -->
<svg version="1.1" id="Слой_1" xmlns="http://www.w3.org/2000/svg" xmlns:xlink="http://www.w3.org/1999/xlink" x="0px" y="0px"
	 viewBox="0 0 595.28 595.28" style="enable-background:new 0 0 595.28 595.28;" xml:space="preserve">
<style type="text/css">
	.st0{opacity:0.7;fill:#FFFFFF;}
	.st1{fill:#FFFFFF;}
	.st2{fill:none;stroke:#FDFDFB;stroke-width:8;stroke-miterlimit:10;}
</style>
<g>
	<path class="st0" d="M165.8,284.54c10.94-13.52,27.63-22.2,46.27-22.2h174.35c18.64,0,35.33,8.69,46.27,22.2
		c-16.58-54.78-65.96-95.31-125.3-98.73v-29.8c7.47-3.17,12.7-10.57,12.7-19.19c0-11.51-9.33-20.84-20.84-20.84
		c-11.51,0-20.84,9.33-20.84,20.84c0,8.62,5.24,16.02,12.7,19.19v29.8C231.76,189.23,182.37,229.76,165.8,284.54z"/>
	<path class="st0" d="M386.41,388.06H212.06c-18.49,0-35.08-8.55-46.02-21.88c1.61,5.21,3.51,10.29,5.69,15.21v0
		c13.46,58.56-26.14,89.7-26.14,89.7c60.88,8.14,97.35-18.56,97.35-18.56c17.22,7.61,36.26,11.85,56.3,11.85
		c62.66,0,115.66-41.34,133.22-98.23C421.52,379.5,404.92,388.06,386.41,388.06z"/>
</g>
<g>
	<circle class="st1" cx="226.92" cy="321.87" r="16.03"/>
	<circle class="st1" cx="299.24" cy="321.87" r="16.03"/>
	<circle class="st1" cx="371.56" cy="321.87" r="16.03"/>
</g>
<path class="st2" d="M383.08,388.62H215.4c-34.57,0-62.86-28.29-62.86-62.86v0c0-34.57,28.29-62.86,62.86-62.86h167.68
	c34.57,0,62.86,28.29,62.86,62.86v0C445.94,360.34,417.65,388.62,383.08,388.62z"/>
</svg>
