<?xml version="1.0" encoding="utf-8"?>
<!-- Generator: Adobe Illustrator 24.0.2, SVG Export Plug-In . SVG Version: 6.00 Build 0)  -->
<svg version="1.1" id="Слой_1" xmlns="http://www.w3.org/2000/svg" xmlns:xlink="http://www.w3.org/1999/xlink" x="0px" y="0px"
	 viewBox="0 0 595.28 595.28" style="enable-background:new 0 0 595.28 595.28;" xml:space="preserve">
<style type="text/css">
	.st0{display:none;fill:#4CA2DA;stroke:#FFFFFF;stroke-miterlimit:10;}
	.st1{opacity:0.1;fill:#FFFFFF;}
	.st2{opacity:0.2;fill:#FFFFFF;}
	.st3{fill:none;stroke:#FFFFFF;stroke-width:7;stroke-miterlimit:10;}
	.st4{opacity:0.6;fill:#F2F5F7;}
</style>
<rect x="0.13" y="-0.03" class="st0" width="595.28" height="595.28"/>
<circle class="st1" cx="409.19" cy="211.95" r="112.13"/>
<circle class="st1" cx="243.87" cy="325.55" r="169.91"/>
<circle class="st2" cx="188.63" cy="272.33" r="13.93"/>
<circle class="st2" cx="223.05" cy="252.12" r="11.89"/>
<circle class="st2" cx="225.18" cy="283.04" r="7.96"/>
<path class="st3" d="M503.39,350.88H104.36c-3.11,0-5.63-2.52-5.63-5.63V130.58c0-3.11,2.52-5.63,5.63-5.63h399.03
	c3.11,0,5.63,2.52,5.63,5.63v214.68C509.02,348.36,506.5,350.88,503.39,350.88z"/>
<path class="st4" d="M503.39,316.66H104.36c-3.11,0-5.63,2.52-5.63,5.63v22.96c0,3.11,2.52,5.63,5.63,5.63h399.03
	c3.11,0,5.63-2.52,5.63-5.63v-22.96C509.02,319.18,506.5,316.66,503.39,316.66z M303.87,343.12c-5.78,0-10.47-4.69-10.47-10.47
	c0-5.78,4.69-10.47,10.47-10.47c5.78,0,10.47,4.69,10.47,10.47C314.34,338.43,309.65,343.12,303.87,343.12z"/>
<polygon class="st4" points="354.19,395.19 253.6,395.19 262.25,350.88 345.49,350.88 "/>
<rect x="211.22" y="395.19" class="st4" width="185.34" height="9.17"/>
<circle class="st1" cx="452.19" cy="406.96" r="39.02"/>
</svg>
