<?xml version="1.0" encoding="utf-8"?>
<!-- Generator: Adobe Illustrator 24.0.2, SVG Export Plug-In . SVG Version: 6.00 Build 0)  -->
<svg version="1.1" id="Слой_1" xmlns="http://www.w3.org/2000/svg" xmlns:xlink="http://www.w3.org/1999/xlink" x="0px" y="0px"
	 viewBox="0 0 595.3 595.3" style="enable-background:new 0 0 595.3 595.3;" xml:space="preserve">
<style type="text/css">
	.st0{display:none;fill:#4CA2DA;stroke:#FFFFFF;stroke-miterlimit:10;}
	.st1{opacity:0.15;fill:#EF8C16;enable-background:new    ;}
	.st2{opacity:0.25;fill:#EF8C16;enable-background:new    ;}
	.st3{fill:none;stroke:#EF8C16;stroke-width:8;stroke-miterlimit:10;}
	.st4{opacity:0.6;fill:#EF8C16;enable-background:new    ;}
	.st5{opacity:0.2;fill:#EF8C16;enable-background:new    ;}
</style>
<rect x="0.1" y="0" class="st0" width="595.3" height="595.3"/>
<circle class="st1" cx="409.2" cy="211.9" r="112.1"/>
<circle class="st1" cx="243.9" cy="325.5" r="169.9"/>
<circle class="st2" cx="188.6" cy="272.3" r="13.9"/>
<circle class="st2" cx="223.1" cy="252.1" r="11.9"/>
<circle class="st2" cx="225.2" cy="283" r="8"/>
<path class="st3" d="M503.4,350.9h-399c-3.1,0-5.6-2.5-5.6-5.6V130.6c0-3.1,2.5-5.6,5.6-5.6h399c3.1,0,5.6,2.5,5.6,5.6v214.7
	C509,348.4,506.5,350.9,503.4,350.9z"/>
<path class="st4" d="M503.4,316.7h-399c-3.1,0-5.6,2.5-5.6,5.6v23c0,3.1,2.5,5.6,5.6,5.6h399c3.1,0,5.6-2.5,5.6-5.6v-23
	C509,319.2,506.5,316.7,503.4,316.7z M303.9,343.1c-5.8,0-10.5-4.7-10.5-10.5s4.7-10.5,10.5-10.5s10.5,4.7,10.5,10.5
	S309.6,343.1,303.9,343.1z"/>
<polygon class="st4" points="354.2,395.2 253.6,395.2 262.3,350.9 345.5,350.9 "/>
<rect x="211.2" y="395.2" class="st4" width="185.3" height="9.2"/>
<circle class="st5" cx="452.2" cy="407" r="39"/>
</svg>
