<?xml version="1.0" encoding="utf-8"?>
<!-- Generator: Adobe Illustrator 24.0.2, SVG Export Plug-In . SVG Version: 6.00 Build 0)  -->
<svg version="1.1" xmlns="http://www.w3.org/2000/svg" xmlns:xlink="http://www.w3.org/1999/xlink" x="0px" y="0px"
	 viewBox="0 0 595.28 595.28" style="enable-background:new 0 0 595.28 595.28;" xml:space="preserve">
<style type="text/css">
	.st0{display:none;fill:#E28233;stroke:#FFFFFF;stroke-miterlimit:10;}
	.st1{opacity:0.8;fill:#FFFFFF;}
	.st2{fill:none;stroke:#FFFFFF;stroke-width:4;stroke-miterlimit:10;}
	.st3{opacity:0.7;fill:#FFFFFF;}
	.st4{opacity:0.7;}
	.st5{fill:#FFFFFF;}
	.st6{opacity:0.15;fill:#FDFDFB;}
	.st7{opacity:0.25;fill:#FDFDFB;}
	.st8{opacity:0.35;fill:#FDFDFB;}
</style>
<g id="Слой_1">
	<rect class="st0" width="595.28" height="595.28"/>
</g>
<g id="Слой_2">
	<g>
		<polygon class="st1" points="235.97,140.62 233.41,167.65 240.61,167.67 		"/>
		<circle class="st1" cx="235.75" cy="134.13" r="6.48"/>
		<g>
			
				<ellipse transform="matrix(0.9744 -0.2248 0.2248 0.9744 -81.3042 67.2876)" class="st2" cx="254.85" cy="390.71" rx="12.62" ry="11.87"/>
			
				<ellipse transform="matrix(0.9744 -0.2248 0.2248 0.9744 -86.6969 68.3561)" class="st2" cx="256.85" cy="414.92" rx="12.62" ry="11.87"/>
			<path class="st2" d="M238.9,445.91c2.61-18.08,33.21-24.52,44.04-7.9C275.73,449.54,249.43,454.99,238.9,445.91z"/>
		</g>
		<g>
			
				<ellipse transform="matrix(0.9999 -0.0116 0.0116 0.9999 -4.5102 2.5547)" class="st2" cx="218.71" cy="391.38" rx="12.62" ry="11.87"/>
			
				<ellipse transform="matrix(0.9999 -0.0116 0.0116 0.9999 -4.7888 2.5191)" class="st2" cx="215.49" cy="415.47" rx="12.62" ry="11.87"/>
			<path class="st2" d="M191.34,441.9c6.42-17.11,37.68-16.87,44.71,1.69C226.54,453.32,199.68,453.03,191.34,441.9z"/>
		</g>
		<g>
			
				<ellipse transform="matrix(0.5116 -0.8593 0.8593 0.5116 -201.1646 315.3392)" class="st2" cx="176.78" cy="334.61" rx="15.81" ry="12.2"/>
			<path class="st2" d="M174.5,372.16c3.67-10.98-0.07-22.12-8.35-24.88c-7.34-2.45-15.78,2.51-20.16,11.32
				c-0.13-0.04-0.27-0.09-0.41-0.12l-6.41-1.59c-2.94-0.73-5.95,1.08-6.67,4.03l-0.05,0.21c-0.73,2.94,1.08,5.95,4.03,6.67
				l6.41,1.59c0.09,0.02,0.17,0.03,0.26,0.05c-0.11,2.25,0.09,4.42,0.57,6.43c-0.51,0.36-0.96,0.81-1.33,1.36l-6.72,10.22
				c-1.54,2.34-0.88,5.52,1.46,7.07c2.34,1.54,5.52,0.88,7.07-1.46l5.18-7.88c0.47,0.35,0.95,0.67,1.47,0.95l-0.75,11.39
				c-0.17,2.6,1.81,4.86,4.41,5.03c2.6,0.17,4.86-1.81,5.03-4.41l0.72-10.97c0.67-0.18,1.34-0.41,2-0.69l3.08,6.46
				c1.12,2.35,3.95,3.35,6.3,2.24h0c2.35-1.12,3.35-3.95,2.24-6.3l-3.96-8.32C171.83,378.23,173.43,375.38,174.5,372.16z"/>
			<circle class="st3" cx="161.02" cy="362.86" r="8.45"/>
		</g>
		<g>
			
				<ellipse transform="matrix(0.8905 -0.455 0.455 0.8905 -120.1215 172.9915)" class="st2" cx="299.35" cy="336.06" rx="11.61" ry="15.05"/>
			<path class="st2" d="M308.8,392.51l3.78-9.17c0.02-0.05,0.03-0.09,0.05-0.14c1.06,0.55,2.15,0.99,3.23,1.33
				c-0.11,0.64-0.09,1.32,0.08,1.99l2.88,11.33c0.66,2.6,3.33,4.18,5.93,3.52l0,0c2.6-0.66,4.18-3.33,3.52-5.93l-2.76-10.87
				c1.16-0.42,2.25-1.02,3.24-1.8c0.05-0.04,0.1-0.09,0.16-0.13l7.12,7.2c1.75,1.77,4.62,1.78,6.39,0.04
				c1.77-1.75,1.78-4.62,0.04-6.39l-8.85-8.95c-0.08-0.08-0.17-0.16-0.26-0.24c0.5-3.59-0.17-7.64-1.99-11.52l4.85-1.45
				c2.76-0.83,4.35-3.76,3.53-6.53l-0.07-0.24c-0.83-2.76-3.76-4.35-6.53-3.53l-6.09,1.82c-0.86,0.26-1.6,0.72-2.19,1.31
				c-6.68-5.83-15.34-7.22-20.89-2.84c-6.55,5.16-6.31,16.39,0.54,25.07c0.42,0.53,0.86,1.04,1.3,1.53
				c-0.68,0.48-1.24,1.14-1.57,1.96l-3.78,9.17c-0.95,2.3,0.16,4.95,2.46,5.9C305.2,395.92,307.85,394.81,308.8,392.51z"/>
			<circle class="st3" cx="314.33" cy="365.17" r="8.04"/>
		</g>
		<path class="st2" d="M226.07,302.11h24.41c19.21,0,34.93,15.72,34.93,34.93v29.36c0,6.6-5.4,12-12,12h-70.27c-6.6,0-12-5.4-12-12
			v-29.36C191.14,317.83,206.86,302.11,226.07,302.11z"/>
		<path class="st2" d="M340.62,236.24c0,35.19-46.64,63.71-104.16,63.71s-104.16-28.52-104.16-63.71s46.64-68.08,104.16-68.08
			S340.62,201.05,340.62,236.24z"/>
		<path class="st3" d="M216.78,222.86c-5.54-4.8-13.92-4.21-18.73,1.33c-4.8,5.54-4.21,13.92,1.33,18.73
			c5.54,4.8,13.92,4.21,18.73-1.33C222.92,236.05,222.32,227.67,216.78,222.86z M214.38,235.91c-2.4,0.32-4.59-1.37-4.91-3.76
			c-0.32-2.4,1.37-4.59,3.76-4.91c2.4-0.32,4.59,1.37,4.91,3.76C218.46,233.39,216.78,235.59,214.38,235.91z"/>
		<path class="st3" d="M276.64,246.35c6.13,1.15,12.03-2.89,13.18-9.02c1.15-6.13-2.89-12.03-9.02-13.18
			c-6.13-1.15-12.03,2.89-13.18,9.02C266.47,239.3,270.51,245.2,276.64,246.35z M283.1,229.65c2.11,0.08,3.76,1.85,3.68,3.96
			c-0.08,2.11-1.85,3.76-3.96,3.68c-2.11-0.08-3.76-1.85-3.68-3.96S281,229.58,283.1,229.65z"/>
		<circle class="st2" cx="272.92" cy="237.75" r="22.68"/>
		<path class="st2" d="M336.86,219.23c4.92,0.58,8.82,8.35,8.82,17.82c0,9.86-4.23,17.87-9.43,17.87c-0.06,0-0.12,0-0.18-0.01"/>
		<path class="st2" d="M135.76,252.58c-4.74-0.93-8.44-8.54-8.44-17.78c0-9.86,4.21-17.87,9.41-17.87c0.13,0,0.27,0,0.4,0.02"/>
		<path class="st2" d="M217.69,274.01h43.93C251.27,286.93,230.58,291,217.69,274.01z"/>
		<g class="st4">
			<g>
				<path class="st5" d="M248.23,337.04l-0.02,7c6.1,4.82,14.93,4.1,20.09-2.06c4.66-5.55,4.52-14.52-1.53-19.26
					c-5.08-3.98-12.05-4.4-18.44,0.19l0.01,1.73c9.11-6.07,20.38-0.58,18.62,8.67c-1.05,5.52-6.62,8.02-10.39,7.49l-0.52-3.75
					L248.23,337.04z"/>
				<circle class="st5" cx="252.12" cy="330.44" r="3.87"/>
			</g>
		</g>
		<circle class="st2" cx="200.46" cy="235.25" r="28.03"/>
		<circle class="st6" cx="351.25" cy="343.64" r="146.08"/>
		<circle class="st6" cx="278.72" cy="229.65" r="124.1"/>
		<circle class="st7" cx="132.23" cy="315.27" r="24.99"/>
		<circle class="st7" cx="376.24" cy="371.31" r="24.99"/>
		<circle class="st6" cx="380.57" cy="326.57" r="12.57"/>
		<circle class="st8" cx="202.6" cy="401.52" r="39.62"/>
		<circle class="st6" cx="115.09" cy="268.14" r="17.14"/>
	</g>
</g>
</svg>
