<?xml version="1.0" encoding="utf-8"?>
<!-- Generator: Adobe Illustrator 24.0.2, SVG Export Plug-In . SVG Version: 6.00 Build 0)  -->
<svg version="1.1" xmlns="http://www.w3.org/2000/svg" xmlns:xlink="http://www.w3.org/1999/xlink" x="0px" y="0px"
	 viewBox="0 0 595.28 595.28" style="enable-background:new 0 0 595.28 595.28;" xml:space="preserve">
<style type="text/css">
	.st0{display:none;}
	.st1{display:inline;fill:#243235;}
	.st2{fill:#FFFFFF;}
	.st3{opacity:0.7;fill:#FFFFFF;}
	.st4{fill:none;stroke:#FDFDFB;stroke-width:8;stroke-miterlimit:10;}
	.st5{fill:#FDFDFB;}
</style>
<g id="Слой_2" class="st0">
	<rect x="653.5" y="0" class="st1" width="595.28" height="595.28"/>
	<rect class="st1" width="595.28" height="595.28"/>
</g>
<g id="Слой_1">
	<path class="st2" d="M176.42,279.14v5c-1.38,1.2-2.7,2.45-3.96,3.74c0.04-0.09,0.06-0.18,0.1-0.27
		c-10.59,10.82-16.96,24.59-16.96,39.54c0,16.69,7.93,31.91,20.82,43.19v2.72c-0.77,0-1.53-0.01-2.29-0.05
		c-28.78-1.03-51.75-21.65-51.75-46.91c0-25.83,23.98-46.78,53.65-46.95C176.17,279.14,176.29,279.14,176.42,279.14z"/>
	<path class="st2" d="M431.28,374.11v-5c1.21-1.2,2.36-2.45,3.47-3.74c-0.03,0.09-0.05,0.18-0.08,0.27
		c9.28-10.82,14.86-24.59,14.86-39.54c0-16.69-6.95-31.91-18.25-43.19v-2.72c0.68,0,1.34,0.01,2,0.05
		c25.23,1.03,45.36,21.65,45.36,46.91c0,25.83-21.02,46.78-47.02,46.95C431.5,374.11,431.39,374.11,431.28,374.11z"/>
	<g>
		<path class="st3" d="M434.55,287.88c-6.66-8.24-15.46-14.68-25.54-18.45c-6.46-2.43-13.45-3.75-20.72-3.75H213.94
			c-16.86,0-32.13,7.1-42.98,18.46c-1.15,1.2-2.24,2.45-3.29,3.74c0.03-0.09,0.05-0.18,0.08-0.27c0.87-2.86,1.84-5.68,2.89-8.46
			c18.96-50.32,66.19-86.76,122.33-90v-29.8c-7.47-3.18-12.7-10.57-12.7-19.2c0-11.51,9.33-20.84,20.84-20.84
			s20.85,9.33,20.85,20.84c0,8.63-5.24,16.02-12.71,19.2v29.8C368.59,192.57,417.98,233.1,434.55,287.88z"/>
		<path class="st3" d="M434.33,369.48c-17.56,56.89-70.56,98.23-133.22,98.23c-20.03,0-39.08-4.24-56.3-11.85
			c0,0-0.35,0.26-1.04,0.71c-31.03-14.15-55.98-39.31-69.86-70.49c-0.1-0.45-0.2-0.9-0.3-1.35c-2.18-4.93-4.08-10.01-5.69-15.22
			c10.94,13.34,27.53,21.88,46.02,21.88h174.35C406.79,391.39,423.39,382.83,434.33,369.48z"/>
	</g>
	<g>
		<circle class="st2" cx="242.54" cy="327.15" r="16.03"/>
		<circle class="st2" cx="358.18" cy="327.15" r="16.03"/>
	</g>
	<path class="st4" d="M169.92,369.51c11.47,12.1,28.72,20.5,46.6,20.5H384.2c17.28,0,33-7.07,44.39-18.47
		c11.4-11.39,18.47-27.1,18.47-44.39c0-25.77-15.72-48.05-38.05-57.72c-7.62-3.31-16.01-5.14-24.81-5.14H216.52
		c-17.28,0-33,7.07-44.39,18.47c-0.39,0.39-0.78,0.79-1.17,1.2c-1.11,1.17-2.19,2.39-3.21,3.65c-0.03,0.09-0.05,0.18-0.08,0.27
		c1.05-1.29,2.14-2.54,3.29-3.74"/>
	<path class="st2" d="M122.39,338.7L122.39,338.7c-3.03,0-5.5-2.48-5.5-5.5V319c0-3.03,2.48-5.5,5.5-5.5h0c3.03,0,5.5,2.48,5.5,5.5
		v14.2C127.89,336.22,125.42,338.7,122.39,338.7z"/>
	<path class="st2" d="M478.64,338.7L478.64,338.7c-3.03,0-5.5-2.48-5.5-5.5V319c0-3.03,2.48-5.5,5.5-5.5l0,0
		c3.03,0,5.5,2.48,5.5,5.5v14.2C484.14,336.22,481.66,338.7,478.64,338.7z"/>
	<path class="st4" d="M473.13,326.01c0-92.04-77.29-166.66-172.62-166.66s-172.62,74.61-172.62,166.66"/>
	<path class="st4" d="M145.78,354.21c1.14-1.35,4.35,70.48,112.79,64.38"/>
	<path class="st5" d="M287.32,428.91h-25.38c-5.68,0-10.32-4.64-10.32-10.32l0,0c0-5.68,4.64-10.32,10.32-10.32h25.38
		c5.68,0,10.32,4.64,10.32,10.32l0,0C297.64,424.27,292.99,428.91,287.32,428.91z"/>
</g>
</svg>
