<?xml version="1.0" encoding="UTF-8" standalone="no"?>
<!-- Generator: Adobe Illustrator 24.0.2, SVG Export Plug-In . SVG Version: 6.00 Build 0)  -->

<svg
   xmlns:dc="http://purl.org/dc/elements/1.1/"
   xmlns:cc="http://creativecommons.org/ns#"
   xmlns:rdf="http://www.w3.org/1999/02/22-rdf-syntax-ns#"
   xmlns:svg="http://www.w3.org/2000/svg"
   xmlns="http://www.w3.org/2000/svg"
   xmlns:sodipodi="http://sodipodi.sourceforge.net/DTD/sodipodi-0.dtd"
   xmlns:inkscape="http://www.inkscape.org/namespaces/inkscape"
   version="1.1"
   id="Слой_1"
   x="0px"
   y="0px"
   viewBox="0 0 595.3 595.3"
   style="enable-background:new 0 0 595.3 595.3;"
   xml:space="preserve"
   sodipodi:docname="mobile-black.svg"
   inkscape:version="0.92.2 5c3e80d, 2017-08-06"><metadata
     id="metadata4641"><rdf:RDF><cc:Work
         rdf:about=""><dc:format>image/svg+xml</dc:format><dc:type
           rdf:resource="http://purl.org/dc/dcmitype/StillImage" /><dc:title></dc:title></cc:Work></rdf:RDF></metadata><defs
     id="defs4639" /><sodipodi:namedview
     pagecolor="#ffffff"
     bordercolor="#666666"
     borderopacity="1"
     objecttolerance="10"
     gridtolerance="10"
     guidetolerance="10"
     inkscape:pageopacity="0"
     inkscape:pageshadow="2"
     inkscape:window-width="1109"
     inkscape:window-height="720"
     id="namedview4637"
     showgrid="false"
     inkscape:zoom="0.5606491"
     inkscape:cx="449.94583"
     inkscape:cy="499.18626"
     inkscape:window-x="0"
     inkscape:window-y="0"
     inkscape:window-maximized="0"
     inkscape:current-layer="Слой_1" /><style
     type="text/css"
     id="style4613">
	.st0{display:none;}
	.st1{display:inline;fill:#4CA2DA;stroke:#FFFFFF;stroke-miterlimit:10;}
	.st2{opacity:0.15;fill:#EF8C16;enable-background:new    ;}
	.st3{fill:none;stroke:#EF8C16;stroke-width:8;stroke-miterlimit:10;}
	.st4{opacity:0.6;fill:#EF8C16;enable-background:new    ;}
	.st5{opacity:0.2;fill:#EF8C16;enable-background:new    ;}
</style><g
     id="Слой_1_1_"
     class="st0"><rect
       y="0"
       class="st1"
       width="595.3"
       height="595.3"
       id="rect4615" /></g><circle
     class="st2"
     cx="251.5"
     cy="375.2"
     r="164.6"
     id="circle4618"
     style="fill:#000000" /><path
     class="st3"
     d="M359,500.2H199.6c-15.4,0-27.9-12.6-27.9-27.9V138.4c0-15.4,12.6-27.9,27.9-27.9H359  c15.4,0,27.9,12.6,27.9,27.9v333.9C386.9,487.6,374.4,500.2,359,500.2z"
     id="path4620"
     style="stroke:#000000" /><rect
     x="183.6"
     y="146.5"
     class="st4"
     width="191.3"
     height="298.1"
     id="rect4622"
     style="fill:#000000" /><path
     class="st4"
     d="M300,128.4h-41.4c-1.8,0-3.2-1.4-3.2-3.2v-0.7c0-1.8,1.4-3.2,3.2-3.2H300c1.8,0,3.2,1.4,3.2,3.2v0.7  C303.2,126.9,301.7,128.4,300,128.4z"
     id="path4624"
     style="fill:#000000" /><circle
     class="st4"
     cx="279.3"
     cy="470.8"
     r="20.7"
     id="circle4626"
     style="fill:#000000" /><circle
     class="st2"
     cx="383.5"
     cy="180.4"
     r="124.9"
     id="circle4628"
     style="fill:#000000" /><circle
     class="st5"
     cx="146.9"
     cy="280.1"
     r="15.5"
     id="circle4630"
     style="fill:#000000" /><circle
     class="st5"
     cx="139.2"
     cy="208.3"
     r="13.2"
     id="circle4632"
     style="fill:#000000" /><circle
     class="st5"
     cx="115.3"
     cy="233.2"
     r="8.9"
     id="circle4634"
     style="fill:#000000" /></svg>