<?xml version="1.0" encoding="utf-8"?>
<!-- Generator: Adobe Illustrator 24.0.2, SVG Export Plug-In . SVG Version: 6.00 Build 0)  -->
<svg version="1.1" id="Слой_1" xmlns="http://www.w3.org/2000/svg" xmlns:xlink="http://www.w3.org/1999/xlink" x="0px" y="0px"
	 viewBox="0 0 595.3 595.3" style="enable-background:new 0 0 595.3 595.3;" xml:space="preserve">
<style type="text/css">
	.st0{display:none;}
	.st1{display:inline;fill:#4CA2DA;stroke:#FFFFFF;stroke-miterlimit:10;}
	.st2{opacity:0.15;fill:#EF8C16;enable-background:new    ;}
	.st3{fill:none;stroke:#EF8C16;stroke-width:8;stroke-miterlimit:10;}
	.st4{opacity:0.6;fill:#EF8C16;enable-background:new    ;}
	.st5{opacity:0.2;fill:#EF8C16;enable-background:new    ;}
</style>
<g id="Слой_1_1_" class="st0">
	<rect y="0" class="st1" width="595.3" height="595.3"/>
</g>
<circle class="st2" cx="251.5" cy="375.2" r="164.6"/>
<path class="st3" d="M359,500.2H199.6c-15.4,0-27.9-12.6-27.9-27.9V138.4c0-15.4,12.6-27.9,27.9-27.9H359
	c15.4,0,27.9,12.6,27.9,27.9v333.9C386.9,487.6,374.4,500.2,359,500.2z"/>
<rect x="183.6" y="146.5" class="st4" width="191.3" height="298.1"/>
<path class="st4" d="M300,128.4h-41.4c-1.8,0-3.2-1.4-3.2-3.2v-0.7c0-1.8,1.4-3.2,3.2-3.2H300c1.8,0,3.2,1.4,3.2,3.2v0.7
	C303.2,126.9,301.7,128.4,300,128.4z"/>
<circle class="st4" cx="279.3" cy="470.8" r="20.7"/>
<circle class="st2" cx="383.5" cy="180.4" r="124.9"/>
<circle class="st5" cx="146.9" cy="280.1" r="15.5"/>
<circle class="st5" cx="139.2" cy="208.3" r="13.2"/>
<circle class="st5" cx="115.3" cy="233.2" r="8.9"/>
</svg>
