<?xml version="1.0" encoding="utf-8"?>
<!-- Generator: Adobe Illustrator 24.0.2, SVG Export Plug-In . SVG Version: 6.00 Build 0)  -->
<svg version="1.1" xmlns="http://www.w3.org/2000/svg" xmlns:xlink="http://www.w3.org/1999/xlink" x="0px" y="0px"
	 viewBox="0 0 595.28 595.28" style="enable-background:new 0 0 595.28 595.28;" xml:space="preserve">
<style type="text/css">
	.st0{display:none;}
	.st1{display:inline;fill:#4CA2DA;stroke:#FFFFFF;stroke-miterlimit:10;}
	.st2{opacity:0.1;fill:#FFFFFF;}
	.st3{fill:none;stroke:#FFFFFF;stroke-width:7;stroke-miterlimit:10;}
	.st4{opacity:0.6;fill:#FFFFFF;}
	.st5{opacity:0.2;fill:#FFFFFF;}
</style>
<g id="Слой_1" class="st0">
	<rect class="st1" width="595.28" height="595.28"/>
</g>
<g id="Слой_2">
	<g>
		<circle class="st2" cx="251.53" cy="375.16" r="164.62"/>
		<path class="st3" d="M359,500.19H199.56c-15.37,0-27.94-12.57-27.94-27.94v-333.9c0-15.37,12.57-27.94,27.94-27.94H359
			c15.37,0,27.94,12.57,27.94,27.94v333.9C386.94,487.62,374.37,500.19,359,500.19z"/>
		<rect x="183.61" y="146.51" class="st4" width="191.34" height="298.14"/>
		<path class="st4" d="M299.96,128.38h-41.38c-1.77,0-3.21-1.44-3.21-3.21v-0.73c0-1.77,1.44-3.21,3.21-3.21h41.38
			c1.77,0,3.21,1.44,3.21,3.21v0.73C303.17,126.94,301.73,128.38,299.96,128.38z"/>
		<circle class="st4" cx="279.28" cy="470.83" r="20.72"/>
		<circle class="st2" cx="383.46" cy="180.4" r="124.9"/>
		<circle class="st5" cx="146.88" cy="280.07" r="15.52"/>
		<circle class="st5" cx="139.16" cy="208.27" r="13.24"/>
		<circle class="st5" cx="115.26" cy="233.18" r="8.87"/>
	</g>
</g>
</svg>
