<?xml version="1.0" encoding="utf-8"?>
<!-- Generator: Adobe Illustrator 24.0.2, SVG Export Plug-In . SVG Version: 6.00 Build 0)  -->
<svg version="1.1" id="Слой_1" xmlns="http://www.w3.org/2000/svg" xmlns:xlink="http://www.w3.org/1999/xlink" x="0px" y="0px"
	 viewBox="0 0 595.3 595.3" style="enable-background:new 0 0 595.3 595.3;" xml:space="preserve">
<style type="text/css">
	.st0{display:none;fill:#31DBAE;}
	.st1{opacity:0.8;fill:#EF8C16;enable-background:new    ;}
	.st2{opacity:0.7;fill:#EF8C16;enable-background:new    ;}
	.st3{opacity:0.7;}
	.st4{fill:#EF8C16;}
	.st5{opacity:0.15;fill:#EF8C16;enable-background:new    ;}
	.st6{opacity:0.25;fill:#EF8C16;enable-background:new    ;}
	.st7{opacity:0.35;fill:#EF8C16;enable-background:new    ;}
	.st8{fill:none;stroke:#EF8C16;stroke-width:5;stroke-miterlimit:10;}
	.st9{opacity:0.55;fill:#EF8C16;enable-background:new    ;}
	.st10{opacity:0.54;fill:#EF8C16;enable-background:new    ;}
	.st11{fill:none;stroke:#EF8C16;stroke-width:5;stroke-miterlimit:9.9997;}
	.st12{fill:none;stroke:#EF8C16;stroke-width:5;stroke-miterlimit:10.0001;}
	.st13{fill:none;stroke:#EF8C16;stroke-width:5;stroke-miterlimit:10.0007;}
</style>
<g id="Слой_1_1_">
	<rect y="0" class="st0" width="595.3" height="595.3"/>
</g>
<polygon class="st1" points="262.4,128.9 259.9,155.9 267.1,155.9 "/>
<circle class="st1" cx="262.2" cy="122.4" r="6.5"/>
<circle class="st2" cx="340.8" cy="353.4" r="8"/>
<g class="st3">
	<g>
		<path class="st4" d="M274.7,325.3l0,7c6.1,4.8,14.9,4.1,20.1-2.1c4.7-5.5,4.5-14.5-1.5-19.3c-5.1-4-12-4.4-18.4,0.2l0,1.7
			c9.1-6.1,20.4-0.6,18.6,8.7c-1,5.5-6.6,8-10.4,7.5l-0.5-3.8L274.7,325.3z"/>
		<circle class="st4" cx="278.6" cy="318.7" r="3.9"/>
	</g>
</g>
<g>
	<circle class="st5" cx="210.8" cy="355.3" r="124.1"/>
	<circle class="st5" cx="362.5" cy="262.3" r="146.1"/>
	<circle class="st6" cx="158.7" cy="303.5" r="25"/>
	<circle class="st6" cx="402.7" cy="359.5" r="25"/>
	<circle class="st5" cx="394.5" cy="300.8" r="12.6"/>
	<circle class="st7" cx="348.9" cy="431.4" r="39.6"/>
	<circle class="st5" cx="141.6" cy="256.4" r="17.1"/>
</g>
<g>
	<path class="st8" d="M244.2,262.3h43.9C277.7,275.2,257,279.2,244.2,262.3z"/>
	<g>
		<path class="st8" d="M367.1,224.5c0,35.2-46.6,63.7-104.2,63.7s-104.2-28.5-104.2-63.7s46.6-68.1,104.2-68.1
			S367.1,189.3,367.1,224.5z"/>
		<circle class="st8" cx="296.7" cy="226.3" r="22.4"/>
		<path class="st8" d="M363.3,207.5c4.9,0.6,8.8,8.4,8.8,17.8c0,9.9-4.2,17.9-9.4,17.9c-0.1,0-0.1,0-0.2,0"/>
		<path class="st8" d="M162.2,240.8c-4.7-0.9-8.4-8.5-8.4-17.8c0-9.9,4.2-17.9,9.4-17.9c0.1,0,0.3,0,0.4,0"/>
		<circle class="st8" cx="229.5" cy="224.3" r="26.2"/>
	</g>
</g>
<path class="st9" d="M229.9,213.1c-7.7,0-13.9,6.2-13.9,13.9s6.2,13.9,13.9,13.9s13.9-6.2,13.9-13.9S237.5,213.1,229.9,213.1z
	 M230.8,231.2c-2.3,0-4.1-1.8-4.1-4.1s1.8-4.1,4.1-4.1s4.1,1.8,4.1,4.1S233.1,231.2,230.8,231.2z"/>
<path class="st9" d="M294.1,214.9c-7.2,0-13,5.8-13,13c0,7.2,5.8,13,13,13c7.2,0,13-5.8,13-13S301.3,214.9,294.1,214.9z
	 M295.3,231.8c-2.1,0-3.7-1.7-3.7-3.7s1.7-3.7,3.7-3.7s3.7,1.7,3.7,3.7S297.4,231.8,295.3,231.8z"/>
<path class="st10" d="M217.8,364.2v63.6h-50.1v-63.6h7v6.3c0,5.7,4.7,10.4,10.4,10.4h15.3c5.7,0,10.4-4.7,10.4-10.4v-6.3H217.8z"/>
<g>
	<g>
		
			<ellipse transform="matrix(0.9744 -0.2248 0.2248 0.9744 -77.9867 72.9409)" class="st8" cx="281.3" cy="378.9" rx="12.6" ry="11.9"/>
		
			<ellipse transform="matrix(0.9744 -0.2248 0.2248 0.9744 -83.3778 74.0098)" class="st8" cx="283.3" cy="403.2" rx="12.6" ry="11.9"/>
		<path class="st8" d="M265.4,434.1c2.6-18.1,33.2-24.5,44-7.9C302.2,437.8,275.9,443.2,265.4,434.1z"/>
	</g>
	<g>
		
			<ellipse transform="matrix(0.9999 -1.160038e-02 1.160038e-02 0.9999 -4.387 2.8698)" class="st11" cx="245.2" cy="379.6" rx="12.6" ry="11.9"/>
		
			<ellipse transform="matrix(0.9999 -1.160038e-02 1.160038e-02 0.9999 -4.6666 2.8341)" class="st11" cx="242" cy="403.7" rx="12.6" ry="11.9"/>
		<path class="st8" d="M217.8,430.1c6.4-17.1,37.7-16.9,44.7,1.7C253,441.6,226.2,441.3,217.8,430.1z"/>
	</g>
	<g>
		
			<ellipse transform="matrix(0.8905 -0.455 0.455 0.8905 -111.87 183.7619)" class="st12" cx="325.8" cy="324.3" rx="11.6" ry="15.1"/>
		<path class="st8" d="M335.3,380.8l3.8-9.2c0,0,0-0.1,0-0.1c1.1,0.5,2.1,1,3.2,1.3c-0.1,0.6-0.1,1.3,0.1,2l2.9,11.3
			c0.7,2.6,3.3,4.2,5.9,3.5l0,0c2.6-0.7,4.2-3.3,3.5-5.9l-2.8-10.9c1.2-0.4,2.3-1,3.2-1.8c0,0,0.1-0.1,0.2-0.1l7.1,7.2
			c1.8,1.8,4.6,1.8,6.4,0c1.8-1.8,1.8-4.6,0-6.4l-8.9-9c-0.1-0.1-0.2-0.2-0.3-0.2c0.5-3.6-0.2-7.6-2-11.5l4.9-1.5
			c2.8-0.8,4.4-3.8,3.5-6.5l-0.1-0.2c-0.8-2.8-3.8-4.4-6.5-3.5l-6.1,1.8c-0.9,0.3-1.6,0.7-2.2,1.3c-6.7-5.8-15.3-7.2-20.9-2.8
			c-6.5,5.2-6.3,16.4,0.5,25.1c0.4,0.5,0.9,1,1.3,1.5c-0.7,0.5-1.2,1.1-1.6,2l-3.8,9.2c-1,2.3,0.2,5,2.5,5.9
			C331.7,384.2,334.3,383,335.3,380.8z"/>
		<path class="st8" d="M252.5,290.4h24.4c19.2,0,34.9,15.7,34.9,34.9v29.4c0,6.6-5.4,12-12,12h-70.3c-6.6,0-12-5.4-12-12v-29.4
			C217.6,306.1,233.3,290.4,252.5,290.4z"/>
		<path class="st8" d="M210.8,358v12.5c0,5.7-4.7,10.4-10.4,10.4h-15.3c-5.7,0-10.4-4.7-10.4-10.4V358c0-8.5,6.9-15.4,15.4-15.4h5.2
			C203.8,342.5,210.8,349.5,210.8,358z"/>
		<line class="st8" x1="187.1" y1="380.9" x2="187.1" y2="364.2"/>
		<line class="st8" x1="197.4" y1="380.9" x2="197.4" y2="364.2"/>
		<g>
			
				<ellipse transform="matrix(0.5116 -0.8592 0.8592 0.5116 -180.7037 333.8253)" class="st13" cx="203.3" cy="325.9" rx="15.8" ry="12.2"/>
			<path class="st8" d="M174.7,364.2v6.3c0,5.7,4.7,10.4,10.4,10.4h2h10.4h2.9c5.7,0,10.4-4.7,10.4-10.4v-6.3"/>
		</g>
	</g>
</g>
</svg>
