<?xml version="1.0" encoding="utf-8"?>
<!-- Generator: Adobe Illustrator 24.0.2, SVG Export Plug-In . SVG Version: 6.00 Build 0)  -->
<svg version="1.1" id="Слой_1" xmlns="http://www.w3.org/2000/svg" xmlns:xlink="http://www.w3.org/1999/xlink" x="0px" y="0px"
	 viewBox="0 0 595.3 595.3" style="enable-background:new 0 0 595.3 595.3;" xml:space="preserve">
<style type="text/css">
	.st0{display:none;}
	.st1{display:inline;fill:#89C05F;stroke:#FFFFFF;stroke-miterlimit:10;}
	.st2{opacity:0.7;fill:#EF8C16;enable-background:new    ;}
	.st3{fill:none;stroke:#EF8C16;stroke-width:5;stroke-miterlimit:10.0007;}
	.st4{fill:none;stroke:#EF8C16;stroke-width:5;stroke-miterlimit:10;}
	.st5{fill:none;stroke:#EF8C16;stroke-width:5;stroke-miterlimit:10.0001;}
	.st6{fill:none;stroke:#EF8C16;stroke-width:5;stroke-miterlimit:9.9997;}
	.st7{opacity:0.8;fill:#EF8C16;enable-background:new    ;}
	.st8{opacity:0.7;}
	.st9{fill:#EF8C16;}
	.st10{opacity:0.15;fill:#EF8C16;enable-background:new    ;}
	.st11{opacity:0.25;fill:#EF8C16;enable-background:new    ;}
	.st12{opacity:0.35;fill:#EF8C16;enable-background:new    ;}
</style>
<g id="Слой_1_1_" class="st0">
	<rect y="0" class="st1" width="595.3" height="595.3"/>
</g>
<circle class="st2" cx="161" cy="362.9" r="8.5"/>
<g>
	
		<ellipse transform="matrix(0.5116 -0.8592 0.8592 0.5116 -201.1608 315.3587)" class="st3" cx="176.8" cy="334.6" rx="15.8" ry="12.2"/>
	<path class="st4" d="M174.5,372.2c3.7-11-0.1-22.1-8.4-24.9c-7.3-2.5-15.8,2.5-20.2,11.3c-0.1,0-0.3-0.1-0.4-0.1l-6.4-1.6
		c-2.9-0.7-5.9,1.1-6.7,4l-0.1,0.2c-0.7,2.9,1.1,6,4,6.7l6.4,1.6c0.1,0,0.2,0,0.3,0c-0.1,2.3,0.1,4.4,0.6,6.4
		c-0.5,0.4-1,0.8-1.3,1.4l-6.7,10.2c-1.5,2.3-0.9,5.5,1.5,7.1c2.3,1.5,5.5,0.9,7.1-1.5l5.2-7.9c0.5,0.4,0.9,0.7,1.5,1l-0.8,11.4
		c-0.2,2.6,1.8,4.9,4.4,5s4.9-1.8,5-4.4l0.7-11c0.7-0.2,1.3-0.4,2-0.7l3.1,6.5c1.1,2.4,3.9,3.4,6.3,2.2l0,0c2.4-1.1,3.4-4,2.2-6.3
		l-4-8.3C171.8,378.2,173.4,375.4,174.5,372.2z"/>
	<g>
		
			<ellipse transform="matrix(0.8905 -0.455 0.455 0.8905 -120.1194 173.006)" class="st5" cx="299.4" cy="336" rx="11.6" ry="15.1"/>
		<path class="st4" d="M308.8,392.5l3.8-9.2c0,0,0-0.1,0-0.1c1.1,0.5,2.1,1,3.2,1.3c-0.1,0.6-0.1,1.3,0.1,2l2.9,11.3
			c0.7,2.6,3.3,4.2,5.9,3.5l0,0c2.6-0.7,4.2-3.3,3.5-5.9l-2.8-10.9c1.2-0.4,2.3-1,3.2-1.8c0,0,0.1-0.1,0.2-0.1l7.1,7.2
			c1.8,1.8,4.6,1.8,6.4,0c1.8-1.8,1.8-4.6,0-6.4l-8.9-9c-0.1-0.1-0.2-0.2-0.3-0.2c0.5-3.6-0.2-7.6-2-11.5l4.9-1.5
			c2.8-0.8,4.4-3.8,3.5-6.5l-0.1-0.2c-0.8-2.8-3.8-4.4-6.5-3.5l-6.1,1.8c-0.9,0.3-1.6,0.7-2.2,1.3c-6.7-5.8-15.3-7.2-20.9-2.8
			c-6.5,5.2-6.3,16.4,0.5,25.1c0.4,0.5,0.9,1,1.3,1.5c-0.7,0.5-1.2,1.1-1.6,2l-3.8,9.2c-1,2.3,0.2,5,2.5,5.9
			C305.2,395.9,307.9,394.8,308.8,392.5z"/>
	</g>
</g>
<circle class="st2" cx="314.3" cy="365.2" r="8"/>
<g>
	<g>
		
			<ellipse transform="matrix(0.9744 -0.2248 0.2248 0.9744 -81.3079 67.2915)" class="st4" cx="254.9" cy="390.7" rx="12.6" ry="11.9"/>
		
			<ellipse transform="matrix(0.9744 -0.2248 0.2248 0.9744 -86.699 68.3604)" class="st4" cx="256.9" cy="414.9" rx="12.6" ry="11.9"/>
		<path class="st4" d="M238.9,445.9c2.6-18.1,33.2-24.5,44-7.9C275.7,449.5,249.4,455,238.9,445.9z"/>
	</g>
	<g>
		
			<ellipse transform="matrix(0.9999 -1.160038e-02 1.160038e-02 0.9999 -4.5252 2.5635)" class="st6" cx="218.7" cy="391.4" rx="12.6" ry="11.9"/>
		
			<ellipse transform="matrix(0.9999 -1.160038e-02 1.160038e-02 0.9999 -4.8049 2.5278)" class="st6" cx="215.5" cy="415.4" rx="12.6" ry="11.9"/>
		<path class="st4" d="M191.3,441.9c6.4-17.1,37.7-16.9,44.7,1.7C226.5,453.3,199.7,453,191.3,441.9z"/>
	</g>
	<path class="st4" d="M226.1,302.1h24.4c19.2,0,34.9,15.7,34.9,34.9v29.4c0,6.6-5.4,12-12,12h-70.3c-6.6,0-12-5.4-12-12V337
		C191.1,317.8,206.9,302.1,226.1,302.1z"/>
</g>
<g>
	<polygon class="st7" points="236,140.6 233.4,167.6 240.6,167.7 	"/>
	<circle class="st7" cx="235.8" cy="134.1" r="6.5"/>
	<path class="st2" d="M216.8,222.9c-5.5-4.8-13.9-4.2-18.7,1.3c-4.8,5.5-4.2,13.9,1.3,18.7c5.5,4.8,13.9,4.2,18.7-1.3
		C222.9,236.1,222.3,227.7,216.8,222.9z M214.4,235.9c-2.4,0.3-4.6-1.4-4.9-3.8c-0.3-2.4,1.4-4.6,3.8-4.9c2.4-0.3,4.6,1.4,4.9,3.8
		S216.8,235.6,214.4,235.9z"/>
	<path class="st2" d="M276.6,246.4c6.1,1.1,12-2.9,13.2-9s-2.9-12-9-13.2c-6.1-1.1-12,2.9-13.2,9
		C266.5,239.3,270.5,245.2,276.6,246.4z M283.1,229.6c2.1,0.1,3.8,1.9,3.7,4c-0.1,2.1-1.9,3.8-4,3.7s-3.8-1.9-3.7-4
		S281,229.6,283.1,229.6z"/>
	<g class="st8">
		<g>
			<path class="st9" d="M248.2,337l0,7c6.1,4.8,14.9,4.1,20.1-2.1c4.7-5.5,4.5-14.5-1.5-19.3c-5.1-4-12.1-4.4-18.4,0.2l0,1.7
				c9.1-6.1,20.4-0.6,18.6,8.7c-1,5.5-6.6,8-10.4,7.5l-0.5-3.8L248.2,337z"/>
			<circle class="st9" cx="252.1" cy="330.4" r="3.9"/>
		</g>
	</g>
</g>
<g>
	<path class="st4" d="M336.9,219.2c4.9,0.6,8.8,8.4,8.8,17.8c0,9.9-4.2,17.9-9.4,17.9c-0.1,0-0.1,0-0.2,0"/>
	<g>
		<path class="st4" d="M340.6,236.2c0,35.2-46.6,63.7-104.2,63.7s-104.2-28.5-104.2-63.7s46.6-68.1,104.2-68.1
			S340.6,201.1,340.6,236.2z"/>
		<circle class="st4" cx="272.9" cy="237.8" r="22.7"/>
		<path class="st4" d="M135.8,252.6c-4.7-0.9-8.4-8.5-8.4-17.8c0-9.9,4.2-17.9,9.4-17.9c0.1,0,0.3,0,0.4,0"/>
		<path class="st4" d="M217.7,274h43.9C251.3,286.9,230.6,291,217.7,274z"/>
		<circle class="st4" cx="200.5" cy="235.3" r="28"/>
	</g>
</g>
<g>
	<circle class="st10" cx="351.3" cy="343.6" r="146.1"/>
	<circle class="st10" cx="278.7" cy="229.6" r="124.1"/>
	
		<ellipse transform="matrix(7.088900e-02 -0.9975 0.9975 7.088900e-02 -191.6205 424.8181)" class="st11" cx="132.2" cy="315.3" rx="25" ry="25"/>
	<circle class="st11" cx="376.2" cy="371.3" r="25"/>
	<circle class="st10" cx="380.6" cy="326.6" r="12.6"/>
	<circle class="st12" cx="202.6" cy="401.5" r="39.6"/>
	<circle class="st10" cx="115.1" cy="268.1" r="17.1"/>
</g>
</svg>
