<?xml version="1.0" encoding="utf-8"?>
<!-- Generator: Adobe Illustrator 24.0.2, SVG Export Plug-In . SVG Version: 6.00 Build 0)  -->
<svg version="1.1" id="Слой_2_1_" xmlns="http://www.w3.org/2000/svg" xmlns:xlink="http://www.w3.org/1999/xlink" x="0px"
	 y="0px" viewBox="0 0 586.6 595.3" style="enable-background:new 0 0 586.6 595.3;" xml:space="preserve">
<style type="text/css">
	.st0{display:none;fill:#B959E2;}
	.st1{opacity:0.15;fill:#EF8C16;enable-background:new    ;}
	.st2{opacity:0.25;fill:#EF8C16;enable-background:new    ;}
	.st3{opacity:0.35;fill:#EF8C16;enable-background:new    ;}
	.st4{fill:none;stroke:#EF8C16;stroke-width:5;stroke-miterlimit:10;}
	.st5{opacity:0.7;fill:#EF8C16;enable-background:new    ;}
	.st6{fill:none;stroke:#EF8C16;stroke-width:5;stroke-miterlimit:9.9997;}
	.st7{fill:none;stroke:#EF8C16;stroke-width:5;stroke-miterlimit:9.9998;}
	.st8{opacity:0.8;fill:#EF8C16;enable-background:new    ;}
	.st9{opacity:0.7;}
	.st10{fill:#EF8C16;}
</style>
<rect x="-115.2" y="0.3" class="st0" width="846.1" height="595"/>
<g>
	<circle class="st1" cx="344.5" cy="241.6" r="146.1"/>
	<circle class="st1" cx="220.1" cy="375.6" r="124.1"/>
	<circle class="st2" cx="135" cy="228.2" r="25"/>
	<circle class="st2" cx="411" cy="316.9" r="25"/>
	<circle class="st1" cx="361.4" cy="316.3" r="12.6"/>
	<circle class="st3" cx="371.3" cy="379" r="39.6"/>
	<circle class="st1" cx="172.5" cy="184.3" r="17.1"/>
</g>
<g>
	
		<ellipse transform="matrix(0.9444 -0.3288 0.3288 0.9444 -117.3016 110.8508)" class="st4" cx="269.1" cy="402.3" rx="12.6" ry="11.9"/>
	
		<ellipse transform="matrix(0.9444 -0.3288 0.3288 0.9444 -124.8911 113.6901)" class="st4" cx="273.7" cy="426.1" rx="12.6" ry="11.9"/>
	<path class="st4" d="M259.2,458.9c0.6-18.3,30.4-28,42.9-12.6C296.2,458.5,270.7,466.8,259.2,458.9z"/>
</g>
<ellipse transform="matrix(0.7495 -0.662 0.662 0.7495 -181.2359 206.7134)" class="st4" cx="182.5" cy="342.8" rx="15.8" ry="12.2"/>
<path class="st4" d="M168.9,377.9c6.8-9.3,6.7-21.1-0.4-26.2c-6.2-4.6-15.8-2.4-22.6,4.6c-0.1-0.1-0.2-0.2-0.4-0.2l-5.6-3.5
	c-2.6-1.6-6-0.8-7.6,1.8l-0.1,0.2c-1.6,2.6-0.8,6,1.8,7.6l5.6,3.5c0.1,0,0.2,0.1,0.2,0.1c-0.8,2.1-1.3,4.2-1.4,6.3
	c-0.6,0.2-1.2,0.5-1.7,0.9l-9.5,7.7c-2.2,1.8-2.5,5-0.8,7.2s5,2.5,7.2,0.8l7.3-5.9c0.3,0.5,0.7,0.9,1.1,1.4l-4.2,10.6
	c-1,2.4,0.2,5.2,2.7,6.1c2.4,1,5.2-0.2,6.1-2.7l4-10.2c0.7,0,1.4,0,2.1,0l1,7.1c0.4,2.6,2.7,4.4,5.3,4l0,0c2.6-0.4,4.4-2.7,4.1-5.3
	l-1.2-9.1C164.5,382.9,166.9,380.6,168.9,377.9z"/>
<circle class="st5" cx="158.9" cy="364.9" r="8.5"/>
<ellipse transform="matrix(0.8933 -0.4494 0.4494 0.8933 -115.1762 174.2327)" class="st6" cx="309.4" cy="329.7" rx="16.8" ry="13"/>
<path class="st4" d="M372.6,319.6l-10.2-4.3c0,0-0.1,0-0.2-0.1c0.6-1.2,1.1-2.4,1.5-3.6c0.7,0.1,1.5,0.1,2.2-0.1l12.7-3.1
	c2.9-0.7,4.7-3.7,4-6.6l0,0c-0.7-2.9-3.7-4.7-6.6-4l-12.2,3c-0.5-1.3-1.1-2.5-2-3.6c0-0.1-0.1-0.1-0.1-0.2l8.1-7.9
	c2-1.9,2-5.2,0.1-7.1c-1.9-2-5.2-2-7.1-0.1l-10.1,9.8c-0.1,0.1-0.2,0.2-0.3,0.3c-4-0.6-8.5,0.1-12.9,2.1l-1.6-5.4
	c-0.9-3.1-4.2-4.9-7.3-4l-0.3,0.1c-3.1,0.9-4.9,4.2-4,7.3l2,6.8c0.3,1,0.8,1.8,1.5,2.5c-6.6,7.4-8.2,17.1-3.3,23.4
	c5.7,7.4,18.3,7.2,28-0.4c0.6-0.5,1.2-1,1.7-1.5c0.5,0.8,1.3,1.4,2.2,1.8l10.2,4.3c2.6,1.1,5.5-0.1,6.6-2.7
	C376.4,323.6,375.2,320.6,372.6,319.6z"/>
<circle class="st5" cx="342.1" cy="313.2" r="9"/>
<g>
	
		<ellipse transform="matrix(0.8228 -0.5683 0.5683 0.8228 -190.422 195.0998)" class="st7" cx="217.7" cy="402.9" rx="12.2" ry="12.9"/>
	
		<ellipse transform="matrix(0.8228 -0.5683 0.5683 0.8228 -205.4367 194.483)" class="st7" cx="209.2" cy="426.7" rx="12.2" ry="12.9"/>
	<g>
		<path class="st4" d="M227.6,459.9c-1.3-18.9-35.7-29.9-47.3-16.5"/>
		
			<ellipse transform="matrix(0.3344 -0.9424 0.9424 0.3344 -290.8845 493.2008)" class="st6" cx="203.7" cy="452.5" rx="5.4" ry="25.4"/>
	</g>
</g>
<path class="st4" d="M233.9,311.5h24.4c19.2,0,34.9,15.7,34.9,34.9v29.4c0,6.6-5.4,12-12,12H211c-6.6,0-12-5.4-12-12v-29.4
	C199,327.3,214.7,311.5,233.9,311.5z"/>
<polygon class="st8" points="243.9,150.1 241.3,177.1 248.5,177.1 "/>
<circle class="st8" cx="243.6" cy="143.6" r="6.5"/>
<path class="st5" d="M204.8,256.2c6.9,2.4,14.5-1.3,16.9-8.2c2.4-6.9-1.3-14.5-8.2-16.9c-6.9-2.4-14.5,1.3-16.9,8.2
	C194.1,246.2,197.8,253.8,204.8,256.2z M202.1,243.2c2.1-1.2,4.8-0.4,6,1.7c1.2,2.1,0.4,4.8-1.7,6c-2.1,1.2-4.8,0.4-6-1.7
	C199.3,247.1,200,244.4,202.1,243.2z"/>
<path class="st5" d="M280.8,233.4c-6.2,0-11.3,5.1-11.3,11.3c0,6.2,5.1,11.3,11.3,11.3c6.2,0,11.3-5.1,11.3-11.3
	S287.1,233.4,280.8,233.4z M277.5,251c-2.1,0.3-4-1.1-4.4-3.2c-0.3-2.1,1.1-4,3.2-4.4c2.1-0.3,4,1.1,4.4,3.2
	C281.1,248.7,279.6,250.6,277.5,251z"/>
<g>
	<path class="st4" d="M348.5,245.7c0,35.2-46.6,63.7-104.2,63.7s-104.2-28.5-104.2-63.7s46.6-68.1,104.2-68.1
		S348.5,210.5,348.5,245.7z"/>
	<circle class="st4" cx="280.8" cy="247.2" r="22.7"/>
	<circle class="st4" cx="208.3" cy="244.7" r="28"/>
	<path class="st4" d="M344.7,228.7c4.9,0.6,8.8,8.4,8.8,17.8c0,9.9-4.2,17.9-9.4,17.9c-0.1,0-0.1,0-0.2,0"/>
	<path class="st4" d="M143.6,262c-4.7-0.9-8.4-8.5-8.4-17.8c0-9.9,4.2-17.9,9.4-17.9c0.1,0,0.3,0,0.4,0"/>
	<path class="st4" d="M225.6,283.5h43.9C259.1,296.4,238.5,300.4,225.6,283.5z"/>
</g>
<g class="st9">
	<g>
		<path class="st10" d="M256.1,346.5l0,7c6.1,4.8,14.9,4.1,20.1-2.1c4.7-5.5,4.5-14.5-1.5-19.3c-5.1-4-12-4.4-18.4,0.2l0,1.7
			c9.1-6.1,20.4-0.6,18.6,8.7c-1,5.5-6.6,8-10.4,7.5l-0.5-3.8L256.1,346.5z"/>
		<circle class="st10" cx="260" cy="339.9" r="3.9"/>
	</g>
</g>
</svg>
