<?xml version="1.0" encoding="utf-8"?>
<!-- Generator: Adobe Illustrator 24.0.2, SVG Export Plug-In . SVG Version: 6.00 Build 0)  -->
<svg version="1.1" id="Слой_1" xmlns="http://www.w3.org/2000/svg" xmlns:xlink="http://www.w3.org/1999/xlink" x="0px" y="0px"
	 viewBox="0 0 335.75 335.75" style="enable-background:new 0 0 335.75 335.75;" xml:space="preserve">
<style type="text/css">
	.st0{fill:#B5B5B4;}
	.st1{fill:url(#SVGID_1_);}
	.st2{fill:url(#SVGID_2_);}
	.st3{fill:url(#SVGID_3_);}
	.st4{fill:url(#SVGID_4_);}
	.st5{fill:url(#SVGID_5_);}
	.st6{opacity:0.3;fill:#FAF8F7;}
	.st7{fill:url(#SVGID_6_);}
	.st8{fill:url(#SVGID_7_);}
	.st9{fill:url(#SVGID_8_);}
	.st10{fill:#1F2137;}
	.st11{fill:#F5F5F7;}
	.st12{fill:none;stroke:#FBFBFD;stroke-width:2;stroke-miterlimit:10;}
	.st13{fill:#FDFDFB;}
	.st14{fill:url(#SVGID_9_);}
	.st15{fill:#725513;}
	.st16{fill:none;}
	.st17{fill:#FAE8A5;}
	.st18{fill:none;stroke:#1F2137;stroke-miterlimit:10;}
	.st19{fill:none;stroke:#B5B5B4;stroke-miterlimit:10;}
</style>
<g>
	<path class="st0" d="M192.1,188.81h-51.13c-9.58,0-17.43-7.84-17.43-17.43v-40.72c0-23.65,19.35-42.99,42.99-42.99h0
		c23.65,0,42.99,19.35,42.99,42.99v40.72C209.53,180.96,201.69,188.81,192.1,188.81z"/>
	<linearGradient id="SVGID_1_" gradientUnits="userSpaceOnUse" x1="197.3104" y1="129.9309" x2="216.9155" y2="144.9501">
		<stop  offset="0" style="stop-color:#E2E0E0"/>
		<stop  offset="0.1026" style="stop-color:#D3D1D3;stop-opacity:0.959"/>
		<stop  offset="0.2837" style="stop-color:#AFACB4;stop-opacity:0.8865"/>
		<stop  offset="0.5219" style="stop-color:#7B7787;stop-opacity:0.7912"/>
		<stop  offset="0.8049" style="stop-color:#403F55;stop-opacity:0.678"/>
		<stop  offset="1" style="stop-color:#1F2137;stop-opacity:0.6"/>
	</linearGradient>
	<path class="st1" d="M215.58,131.11c2.16,5.87-1.15,12.5-7.4,14.79c-6.25,2.3-13.06-0.61-15.22-6.48
		c-2.16-5.87,1.15-12.5,7.4-14.79C206.61,122.33,213.42,125.23,215.58,131.11z"/>
	<linearGradient id="SVGID_2_" gradientUnits="userSpaceOnUse" x1="206.4633" y1="148.5589" x2="226.0684" y2="163.578">
		<stop  offset="0" style="stop-color:#E2E0E0"/>
		<stop  offset="0.1026" style="stop-color:#D3D1D3;stop-opacity:0.959"/>
		<stop  offset="0.2837" style="stop-color:#AFACB4;stop-opacity:0.8865"/>
		<stop  offset="0.5219" style="stop-color:#7B7787;stop-opacity:0.7912"/>
		<stop  offset="0.8049" style="stop-color:#403F55;stop-opacity:0.678"/>
		<stop  offset="1" style="stop-color:#1F2137;stop-opacity:0.6"/>
	</linearGradient>
	<path class="st2" d="M224.73,149.73c2.16,5.87-1.15,12.5-7.4,14.79c-6.25,2.3-13.06-0.61-15.22-6.48
		c-2.16-5.87,1.15-12.5,7.4-14.79C215.76,140.96,222.57,143.86,224.73,149.73z"/>
	<g>
		
			<linearGradient id="SVGID_3_" gradientUnits="userSpaceOnUse" x1="148.4378" y1="167.7125" x2="161.2785" y2="179.5214" gradientTransform="matrix(0.9686 0.2485 -0.2485 0.9686 46.524 -18.2163)">
			<stop  offset="0" style="stop-color:#E2E0E0"/>
			<stop  offset="0.1026" style="stop-color:#D3D1D3;stop-opacity:0.959"/>
			<stop  offset="0.2837" style="stop-color:#AFACB4;stop-opacity:0.8865"/>
			<stop  offset="0.5219" style="stop-color:#7B7787;stop-opacity:0.7912"/>
			<stop  offset="0.8049" style="stop-color:#403F55;stop-opacity:0.678"/>
			<stop  offset="1" style="stop-color:#1F2137;stop-opacity:0.6"/>
		</linearGradient>
		<path class="st3" d="M163.34,182.28c0.22,0.68,0.37,1.38,0.44,2.12c0.63,6.22-4.23,11.82-10.84,12.49
			c-6.63,0.67-12.5-3.83-13.13-10.06c-0.06-0.59-0.08-1.2-0.03-1.77"/>
		
			<linearGradient id="SVGID_4_" gradientUnits="userSpaceOnUse" x1="150.4321" y1="188.6376" x2="170.0372" y2="203.6568" gradientTransform="matrix(0.9686 0.2485 -0.2485 0.9686 46.524 -18.2163)">
			<stop  offset="0" style="stop-color:#E2E0E0"/>
			<stop  offset="0.1026" style="stop-color:#D3D1D3;stop-opacity:0.959"/>
			<stop  offset="0.2837" style="stop-color:#AFACB4;stop-opacity:0.8865"/>
			<stop  offset="0.5219" style="stop-color:#7B7787;stop-opacity:0.7912"/>
			<stop  offset="0.8049" style="stop-color:#403F55;stop-opacity:0.678"/>
			<stop  offset="1" style="stop-color:#1F2137;stop-opacity:0.6"/>
		</linearGradient>
		<path class="st4" d="M162.77,207.57c0.63,6.23-4.22,11.82-10.84,12.49c-6.62,0.67-12.5-3.83-13.13-10.06
			c-0.63-6.23,4.22-11.82,10.84-12.49S162.13,201.34,162.77,207.57z"/>
		
			<linearGradient id="SVGID_5_" gradientUnits="userSpaceOnUse" x1="151.7378" y1="216.1453" x2="191.9798" y2="219.4701" gradientTransform="matrix(0.9686 0.2485 -0.2485 0.9686 46.524 -18.2163)">
			<stop  offset="0" style="stop-color:#E2E0E0"/>
			<stop  offset="0.1026" style="stop-color:#D3D1D3;stop-opacity:0.959"/>
			<stop  offset="0.2837" style="stop-color:#AFACB4;stop-opacity:0.8865"/>
			<stop  offset="0.5219" style="stop-color:#7B7787;stop-opacity:0.7912"/>
			<stop  offset="0.8049" style="stop-color:#403F55;stop-opacity:0.678"/>
			<stop  offset="1" style="stop-color:#1F2137;stop-opacity:0.6"/>
		</linearGradient>
		<path class="st5" d="M130.07,235.97c4.64-16.81,34.38-19.25,42.65-2.21C164.51,243.82,138.96,245.84,130.07,235.97z"/>
		<path class="st6" d="M144.48,226.15c0,0-6.28,3.27-9.76,9.42l3.21,1.8C137.93,237.37,138.81,232.07,144.48,226.15z"/>
	</g>
	<g>
		
			<linearGradient id="SVGID_6_" gradientUnits="userSpaceOnUse" x1="181.0614" y1="166.9969" x2="193.9021" y2="178.8058" gradientTransform="matrix(0.9841 0.1777 -0.1777 0.9841 32.5589 -15.1819)">
			<stop  offset="0" style="stop-color:#E2E0E0"/>
			<stop  offset="0.1026" style="stop-color:#D3D1D3;stop-opacity:0.959"/>
			<stop  offset="0.2837" style="stop-color:#AFACB4;stop-opacity:0.8865"/>
			<stop  offset="0.5219" style="stop-color:#7B7787;stop-opacity:0.7912"/>
			<stop  offset="0.8049" style="stop-color:#403F55;stop-opacity:0.678"/>
			<stop  offset="1" style="stop-color:#1F2137;stop-opacity:0.6"/>
		</linearGradient>
		<path class="st7" d="M195.83,181.41c0.27,0.66,0.47,1.35,0.59,2.08c1.08,6.16-3.36,12.1-9.91,13.24
			c-6.56,1.15-12.75-2.91-13.83-9.08c-0.11-0.59-0.16-1.19-0.16-1.77"/>
		
			<linearGradient id="SVGID_7_" gradientUnits="userSpaceOnUse" x1="183.0557" y1="187.9221" x2="202.6607" y2="202.9412" gradientTransform="matrix(0.9841 0.1777 -0.1777 0.9841 32.5589 -15.1819)">
			<stop  offset="0" style="stop-color:#E2E0E0"/>
			<stop  offset="0.1026" style="stop-color:#D3D1D3;stop-opacity:0.959"/>
			<stop  offset="0.2837" style="stop-color:#AFACB4;stop-opacity:0.8865"/>
			<stop  offset="0.5219" style="stop-color:#7B7787;stop-opacity:0.7912"/>
			<stop  offset="0.8049" style="stop-color:#403F55;stop-opacity:0.678"/>
			<stop  offset="1" style="stop-color:#1F2137;stop-opacity:0.6"/>
		</linearGradient>
		<path class="st8" d="M197.09,206.67c1.08,6.16-3.36,12.09-9.91,13.24s-12.74-2.92-13.83-9.08s3.36-12.09,9.91-13.24
			C189.82,196.44,196.01,200.51,197.09,206.67z"/>
		
			<linearGradient id="SVGID_8_" gradientUnits="userSpaceOnUse" x1="184.3614" y1="215.4297" x2="224.6034" y2="218.7545" gradientTransform="matrix(0.9841 0.1777 -0.1777 0.9841 32.5589 -15.1819)">
			<stop  offset="0" style="stop-color:#E2E0E0"/>
			<stop  offset="0.1026" style="stop-color:#D3D1D3;stop-opacity:0.959"/>
			<stop  offset="0.2837" style="stop-color:#AFACB4;stop-opacity:0.8865"/>
			<stop  offset="0.5219" style="stop-color:#7B7787;stop-opacity:0.7912"/>
			<stop  offset="0.8049" style="stop-color:#403F55;stop-opacity:0.678"/>
			<stop  offset="1" style="stop-color:#1F2137;stop-opacity:0.6"/>
		</linearGradient>
		<path class="st9" d="M166.54,237.38c3.41-17.1,32.9-21.69,42.37-5.3C201.46,242.71,176.12,246.57,166.54,237.38z"/>
		<path class="st6" d="M180.19,226.54c0,0-6.03,3.71-9.05,10.11l3.33,1.56C174.48,238.2,174.98,232.85,180.19,226.54z"/>
	</g>
	<path class="st10" d="M146.46,93.02c-6.03,2.27-22.99,11.5-22.99,38.02c0,25.33,0,53.89,0,53.89s37.15,17.2,85.99,0v-53.89
		c0,0,3.5-26.87-23.94-38.82l-20.07,9.06L146.46,93.02z"/>
	<polygon class="st11" points="146.1,92.87 137.28,97.46 155.39,108.98 165.51,101.17 	"/>
	<polygon class="st11" points="185.98,92.01 195.12,97.14 175.5,108.98 165.6,101.11 	"/>
	<line class="st12" x1="165.6" y1="101.11" x2="165.6" y2="192.57"/>
	<g>
		<g>
			<path class="st13" d="M186.13,124.2l-0.01,3.59c3.12,2.47,7.64,2.1,10.29-1.06c2.38-2.84,2.31-7.43-0.78-9.86
				c-2.6-2.04-6.17-2.25-9.44,0.1l0.01,0.88c4.66-3.11,10.43-0.3,9.53,4.44c-0.54,2.83-3.39,4.1-5.32,3.83l-0.26-1.92L186.13,124.2z
				"/>
			<circle class="st13" cx="188.12" cy="120.82" r="1.98"/>
		</g>
	</g>
	<linearGradient id="SVGID_9_" gradientUnits="userSpaceOnUse" x1="164.4656" y1="157.9046" x2="146.5845" y2="122.2377">
		<stop  offset="0.1785" style="stop-color:#A48A7B"/>
		<stop  offset="1" style="stop-color:#DADADA"/>
	</linearGradient>
	<path class="st14" d="M178.06,121.14c0.01,0.08,0.01,0.16,0.01,0.24v39.43c0,4.02-3.22,7.31-7.15,7.31h-28.99
		c-3.93,0-7.15-3.29-7.15-7.31v-39.43c0-0.08,0-0.16,0.01-0.24"/>
	<path class="st15" d="M178.07,121.09c0,0.02,0,0.03-0.01,0.06c-0.29,1.22-9.86,2.19-21.63,2.19c-11.77,0-21.34-0.97-21.63-2.19
		c-0.01-0.02-0.01-0.03-0.01-0.06c0-0.01,0-0.02,0.01-0.03c0.17-1.23,9.8-2.21,21.63-2.21c11.83,0,21.46,0.98,21.63,2.21
		C178.07,121.06,178.07,121.07,178.07,121.09z"/>
	<path id="SVGID_x5F_10_x5F_" class="st16" d="M133.72,145.82c0,0,14.52,6.64,50.64,0.93"/>
	<text>	<textPath  xlink:href="#SVGID_x5F_10_x5F_" startOffset="22.4609%">
<tspan  style="font-family:'SegoeScript'; font-size:9.2632px;">Coffee</tspan>	</textPath>
</text>
	<path class="st0" d="M120.27,137.27c0,0-1.08-11.64,7.01-11.01c6.38,0.5,1.08,11.06,1.08,11.06L120.27,137.27z"/>
	<path class="st0" d="M226.01,168.76c-12.59-7.33-7.43-10.84-21.74-0.2c0,0-3.22,14.57-0.1,19.17c3.27,3.96,21.29,3.77,23.08,0.04
		C229.04,184.03,226.01,168.76,226.01,168.76z"/>
	<path class="st17" d="M134.78,153.35c-4.66,0-8.42-4.89-8.42-10.88c0-6.01,3.76-10.88,8.42-10.88v-3.72
		c-6.99,0-12.65,6.54-12.65,14.61c0,8.06,5.66,14.6,12.65,14.61V153.35z"/>
	<g>
		<path class="st0" d="M112.94,131.87c-2.63,2.38-9.72,11.06-0.18,25.36c0,0,13.06,1.49,17.17-1.64c3.54-3.28,3.34-21.29,0-23.08
			C126.59,130.72,112.94,131.87,112.94,131.87z"/>
		<line class="st18" x1="117.64" y1="140.91" x2="132.3" y2="140.91"/>
		<line class="st18" x1="117.64" y1="149.24" x2="132.3" y2="149.24"/>
	</g>
	<line class="st18" x1="219.87" y1="174.01" x2="219.84" y2="190.4"/>
	<line class="st18" x1="210.53" y1="174" x2="210.51" y2="190.38"/>
</g>
</svg>
