<?xml version="1.0" encoding="utf-8"?>
<!-- Generator: Adobe Illustrator 24.0.2, SVG Export Plug-In . SVG Version: 6.00 Build 0)  -->
<svg version="1.1" xmlns="http://www.w3.org/2000/svg" xmlns:xlink="http://www.w3.org/1999/xlink" x="0px" y="0px"
	 viewBox="0 0 595.28 595.28" style="enable-background:new 0 0 595.28 595.28;" xml:space="preserve">
<style type="text/css">
	.st0{display:none;}
	.st1{display:inline;fill:#C6651D;}
	.st2{opacity:0.8;fill:#FFFFFF;}
	.st3{fill:none;stroke:#FFFFFF;stroke-width:4;stroke-miterlimit:10;}
	.st4{opacity:0.7;fill:#FFFFFF;}
	.st5{opacity:0.7;}
	.st6{fill:#FFFFFF;}
	.st7{opacity:0.15;fill:#FDFDFB;}
	.st8{opacity:0.25;fill:#FDFDFB;}
	.st9{opacity:0.35;fill:#FDFDFB;}
	.st10{opacity:0.55;fill:#FDFDFB;}
	.st11{opacity:0.54;fill:#FFFFFF;}
</style>
<g id="Слой_1" class="st0">
	<rect class="st1" width="595.28" height="595.28"/>
</g>
<g id="Слой_2">
	<g>
		<polygon class="st2" points="262.44,128.86 259.88,155.89 267.08,155.91 		"/>
		<circle class="st2" cx="262.22" cy="122.37" r="6.48"/>
		<g>
			
				<ellipse transform="matrix(0.9744 -0.2248 0.2248 0.9744 -77.9832 72.9371)" class="st3" cx="281.32" cy="378.95" rx="12.62" ry="11.87"/>
			
				<ellipse transform="matrix(0.9744 -0.2248 0.2248 0.9744 -83.3759 74.0056)" class="st3" cx="283.32" cy="403.16" rx="12.62" ry="11.87"/>
			<path class="st3" d="M265.37,434.15c2.61-18.08,33.21-24.52,44.04-7.9C302.2,437.78,275.9,443.23,265.37,434.15z"/>
		</g>
		<g>
			
				<ellipse transform="matrix(0.9999 -0.0116 0.0116 0.9999 -4.3725 2.8599)" class="st3" cx="245.18" cy="379.62" rx="12.62" ry="11.87"/>
			
				<ellipse transform="matrix(0.9999 -0.0116 0.0116 0.9999 -4.6511 2.8243)" class="st3" cx="241.96" cy="403.71" rx="12.62" ry="11.87"/>
			<path class="st3" d="M217.81,430.14c6.42-17.11,37.68-16.87,44.71,1.69C253.01,441.56,226.16,441.27,217.81,430.14z"/>
		</g>
		
			<ellipse transform="matrix(0.5116 -0.8593 0.8593 0.5116 -180.7076 333.8059)" class="st3" cx="203.25" cy="325.85" rx="15.81" ry="12.2"/>
		<g>
			
				<ellipse transform="matrix(0.8905 -0.455 0.455 0.8905 -111.8724 183.7476)" class="st3" cx="325.82" cy="324.3" rx="11.61" ry="15.05"/>
			<path class="st3" d="M335.27,380.75l3.78-9.17c0.02-0.05,0.03-0.09,0.05-0.14c1.06,0.55,2.15,0.99,3.23,1.33
				c-0.11,0.64-0.09,1.32,0.08,1.99l2.88,11.33c0.66,2.6,3.33,4.18,5.93,3.52l0,0c2.6-0.66,4.18-3.33,3.52-5.93l-2.76-10.87
				c1.16-0.42,2.25-1.02,3.24-1.8c0.05-0.04,0.1-0.09,0.16-0.13l7.12,7.2c1.75,1.77,4.62,1.78,6.39,0.04
				c1.77-1.75,1.78-4.62,0.04-6.39l-8.85-8.95c-0.08-0.08-0.17-0.16-0.26-0.24c0.5-3.59-0.17-7.64-1.99-11.52l4.85-1.45
				c2.76-0.83,4.35-3.76,3.53-6.53l-0.07-0.24c-0.83-2.76-3.76-4.35-6.53-3.53l-6.09,1.82c-0.86,0.26-1.6,0.72-2.19,1.31
				c-6.68-5.83-15.34-7.22-20.89-2.84c-6.55,5.16-6.31,16.39,0.54,25.07c0.42,0.53,0.86,1.04,1.3,1.53
				c-0.68,0.48-1.24,1.14-1.57,1.96l-3.78,9.17c-0.95,2.3,0.16,4.95,2.46,5.9C331.67,384.16,334.32,383.05,335.27,380.75z"/>
			<circle class="st4" cx="340.8" cy="353.41" r="8.04"/>
		</g>
		<path class="st3" d="M252.54,290.35h24.41c19.21,0,34.93,15.72,34.93,34.93v29.36c0,6.6-5.4,12-12,12h-70.27c-6.6,0-12-5.4-12-12
			v-29.36C217.61,306.07,233.33,290.35,252.54,290.35z"/>
		<path class="st3" d="M367.09,224.48c0,35.19-46.64,63.71-104.16,63.71s-104.16-28.52-104.16-63.71s46.64-68.08,104.16-68.08
			S367.09,189.29,367.09,224.48z"/>
		<circle class="st3" cx="296.7" cy="226.29" r="22.38"/>
		<path class="st3" d="M363.33,207.47c4.92,0.58,8.82,8.35,8.82,17.82c0,9.86-4.23,17.87-9.43,17.87c-0.06,0-0.12,0-0.18-0.01"/>
		<path class="st3" d="M162.23,240.82c-4.74-0.93-8.44-8.54-8.44-17.78c0-9.86,4.21-17.87,9.41-17.87c0.13,0,0.27,0,0.4,0.02"/>
		<path class="st3" d="M244.16,262.25h43.93C277.74,275.17,257.05,279.24,244.16,262.25z"/>
		<g class="st5">
			<g>
				<path class="st6" d="M274.7,325.27l-0.02,7c6.1,4.82,14.93,4.1,20.09-2.06c4.66-5.55,4.52-14.52-1.53-19.26
					c-5.08-3.98-12.05-4.4-18.44,0.19l0.01,1.73c9.11-6.07,20.38-0.58,18.62,8.67c-1.05,5.52-6.62,8.02-10.39,7.49l-0.52-3.75
					L274.7,325.27z"/>
				<circle class="st6" cx="278.59" cy="318.68" r="3.87"/>
			</g>
		</g>
		<circle class="st7" cx="362.54" cy="262.25" r="146.08"/>
		<circle class="st7" cx="210.75" cy="355.29" r="124.1"/>
		<circle class="st8" cx="158.7" cy="303.51" r="24.99"/>
		<circle class="st8" cx="402.71" cy="359.55" r="24.99"/>
		<circle class="st7" cx="394.46" cy="300.76" r="12.57"/>
		<circle class="st9" cx="348.85" cy="431.35" r="39.62"/>
		<circle class="st7" cx="141.56" cy="256.38" r="17.14"/>
		<circle class="st3" cx="229.49" cy="224.25" r="26.24"/>
		<path class="st10" d="M229.86,213.08c-7.66,0-13.87,6.21-13.87,13.87s6.21,13.87,13.87,13.87s13.87-6.21,13.87-13.87
			S237.53,213.08,229.86,213.08z M230.79,231.19c-2.26,0-4.09-1.83-4.09-4.09s1.83-4.09,4.09-4.09s4.09,1.83,4.09,4.09
			S233.05,231.19,230.79,231.19z"/>
		<path class="st10" d="M294.09,214.88c-7.17,0-12.97,5.81-12.97,12.97c0,7.17,5.81,12.97,12.97,12.97
			c7.17,0,12.97-5.81,12.97-12.97C307.06,220.69,301.25,214.88,294.09,214.88z M295.32,231.77c-2.06,0-3.73-1.67-3.73-3.73
			s1.67-3.73,3.73-3.73c2.06,0,3.73,1.67,3.73,3.73S297.38,231.77,295.32,231.77z"/>
		<g>
			<path class="st3" d="M210.75,357.98v12.5c0,5.72-4.68,10.39-10.4,10.39h-15.28c-5.72,0-10.4-4.67-10.4-10.39v-12.5
				c0-8.49,6.95-15.44,15.44-15.44h5.2C203.8,342.54,210.75,349.49,210.75,357.98z"/>
			<line class="st3" x1="187.06" y1="380.87" x2="187.06" y2="364.21"/>
			<line class="st3" x1="197.45" y1="380.87" x2="197.45" y2="364.21"/>
			<path class="st11" d="M217.81,364.21v63.56h-50.14v-63.56h7v6.27c0,5.72,4.68,10.39,10.4,10.39h15.28
				c5.72,0,10.4-4.67,10.4-10.39v-6.27H217.81z"/>
			<path class="st3" d="M174.67,364.21v6.27c0,5.72,4.68,10.39,10.4,10.39h1.99h10.39h2.9c5.72,0,10.4-4.67,10.4-10.39v-6.27"/>
		</g>
	</g>
</g>
</svg>
