<?xml version="1.0" encoding="utf-8"?>
<!-- Generator: Adobe Illustrator 24.0.2, SVG Export Plug-In . SVG Version: 6.00 Build 0)  -->
<svg version="1.1" id="Слой_2" xmlns="http://www.w3.org/2000/svg" xmlns:xlink="http://www.w3.org/1999/xlink" x="0px" y="0px"
	 viewBox="0 0 586.57 595.28" style="enable-background:new 0 0 586.57 595.28;" xml:space="preserve">
<style type="text/css">
	.st0{display:none;fill:#D6702D;}
	.st1{opacity:0.15;fill:#FDFDFB;}
	.st2{opacity:0.25;fill:#FDFDFB;}
	.st3{opacity:0.35;fill:#FDFDFB;}
	.st4{opacity:0.8;fill:#FFFFFF;}
	.st5{fill:none;stroke:#FFFFFF;stroke-width:4;stroke-miterlimit:10;}
	.st6{opacity:0.7;fill:#FFFFFF;}
	.st7{opacity:0.7;}
	.st8{fill:#FFFFFF;}
</style>
<rect x="-115.2" y="0.27" class="st0" width="846.07" height="595.01"/>
<g>
	<g>
		<g>
			<circle class="st1" cx="344.45" cy="241.64" r="146.08"/>
			<circle class="st1" cx="220.14" cy="375.62" r="124.1"/>
			<circle class="st2" cx="134.98" cy="228.18" r="24.99"/>
			<circle class="st2" cx="410.95" cy="316.91" r="24.99"/>
			<circle class="st1" cx="361.39" cy="316.34" r="12.57"/>
			<circle class="st3" cx="371.33" cy="378.98" r="39.62"/>
			<circle class="st1" cx="172.47" cy="184.31" r="17.14"/>
		</g>
		<g>
			<polygon class="st4" points="243.85,150.05 241.29,177.08 248.49,177.11 			"/>
			<circle class="st4" cx="243.62" cy="143.57" r="6.48"/>
			<g>
				<g>
					
						<ellipse transform="matrix(0.9444 -0.3288 0.3288 0.9444 -117.2995 110.8438)" class="st5" cx="269.11" cy="402.27" rx="12.62" ry="11.87"/>
					
						<ellipse transform="matrix(0.9444 -0.3288 0.3288 0.9444 -124.8884 113.6835)" class="st5" cx="273.71" cy="426.13" rx="12.62" ry="11.87"/>
					<path class="st5" d="M259.21,458.87c0.64-18.26,30.36-27.97,42.93-12.61C296.22,458.5,270.66,466.76,259.21,458.87z"/>
				</g>
				<g>
					
						<ellipse transform="matrix(0.7495 -0.662 0.662 0.7495 -181.2322 206.7206)" class="st5" cx="182.53" cy="342.83" rx="15.81" ry="12.2"/>
					<path class="st5" d="M168.89,377.89c6.84-9.33,6.68-21.08-0.35-26.24c-6.24-4.58-15.79-2.43-22.65,4.62
						c-0.11-0.08-0.23-0.17-0.35-0.24l-5.62-3.47c-2.58-1.59-5.99-0.78-7.59,1.8l-0.12,0.19c-1.59,2.58-0.78,5.99,1.8,7.59
						l5.62,3.47c0.08,0.05,0.16,0.08,0.23,0.13c-0.79,2.11-1.26,4.24-1.43,6.3c-0.59,0.18-1.17,0.48-1.68,0.89l-9.52,7.68
						c-2.18,1.76-2.53,4.99-0.77,7.17s4.99,2.53,7.17,0.77l7.34-5.92c0.34,0.48,0.71,0.93,1.11,1.35l-4.19,10.62
						c-0.96,2.42,0.24,5.18,2.66,6.13c2.42,0.96,5.18-0.24,6.13-2.66l4.04-10.22c0.7,0.03,1.4,0.02,2.12-0.04l0.96,7.09
						c0.35,2.58,2.74,4.4,5.32,4.05h0c2.58-0.35,4.4-2.74,4.05-5.32l-1.23-9.13C164.5,382.85,166.89,380.63,168.89,377.89z"/>
					<circle class="st6" cx="158.89" cy="364.92" r="8.45"/>
				</g>
				<g>
					
						<ellipse transform="matrix(0.8933 -0.4494 0.4494 0.8933 -115.1754 174.2298)" class="st5" cx="309.43" cy="329.74" rx="16.83" ry="12.99"/>
					<path class="st5" d="M372.64,319.56l-10.23-4.29c-0.05-0.02-0.1-0.04-0.16-0.06c0.62-1.19,1.12-2.39,1.51-3.6
						c0.72,0.12,1.47,0.11,2.22-0.08l12.69-3.14c2.91-0.72,4.7-3.69,3.98-6.6l0,0c-0.72-2.91-3.69-4.7-6.6-3.98l-12.18,3.02
						c-0.46-1.3-1.12-2.52-1.99-3.64c-0.05-0.06-0.1-0.12-0.15-0.18l8.11-7.92c1.99-1.94,2.03-5.16,0.08-7.15
						c-1.94-1.99-5.16-2.03-7.15-0.08l-10.08,9.84c-0.09,0.09-0.18,0.19-0.27,0.29c-4.01-0.58-8.54,0.14-12.9,2.14l-1.59-5.43
						c-0.9-3.1-4.18-4.89-7.28-3.99l-0.27,0.08c-3.1,0.9-4.89,4.18-3.99,7.28l1.99,6.82c0.28,0.96,0.79,1.8,1.45,2.46
						c-6.56,7.43-8.18,17.1-3.32,23.35c5.73,7.36,18.29,7.17,28.05-0.42c0.6-0.47,1.17-0.95,1.72-1.45
						c0.53,0.76,1.27,1.39,2.18,1.77l10.23,4.29c2.56,1.08,5.54-0.14,6.62-2.71C376.43,323.61,375.21,320.63,372.64,319.56z"/>
					<circle class="st6" cx="342.1" cy="313.18" r="9"/>
				</g>
				<g>
					
						<ellipse transform="matrix(0.8228 -0.5683 0.5683 0.8228 -190.4213 195.1231)" class="st5" cx="217.69" cy="402.92" rx="12.17" ry="12.94"/>
					
						<ellipse transform="matrix(0.8228 -0.5683 0.5683 0.8228 -205.4325 194.5056)" class="st5" cx="209.19" cy="426.69" rx="12.17" ry="12.94"/>
					<g>
						<path class="st5" d="M227.57,459.93c-1.27-18.88-35.66-29.88-47.3-16.49"/>
						
							<ellipse transform="matrix(0.3344 -0.9424 0.9424 0.3344 -290.8499 493.2214)" class="st5" cx="203.74" cy="452.51" rx="5.42" ry="25.37"/>
					</g>
				</g>
			</g>
			<path class="st5" d="M233.95,311.55h24.41c19.21,0,34.93,15.72,34.93,34.93v29.36c0,6.6-5.4,12-12,12h-70.27c-6.6,0-12-5.4-12-12
				v-29.36C199.02,327.26,214.73,311.55,233.95,311.55z"/>
			<path class="st5" d="M348.5,245.67c0,35.19-46.64,63.71-104.16,63.71s-104.16-28.52-104.16-63.71s46.64-68.08,104.16-68.08
				S348.5,210.48,348.5,245.67z"/>
			<path class="st6" d="M204.75,256.19c6.93,2.39,14.49-1.28,16.88-8.21c2.39-6.93-1.28-14.49-8.21-16.88
				c-6.93-2.39-14.49,1.28-16.88,8.21C194.14,246.24,197.82,253.8,204.75,256.19z M202.12,243.19c2.11-1.19,4.77-0.44,5.96,1.66
				c1.19,2.11,0.44,4.77-1.66,5.96c-2.11,1.19-4.77,0.44-5.96-1.66C199.27,247.05,200.01,244.38,202.12,243.19z"/>
			<path class="st6" d="M280.83,233.35c-6.24,0-11.29,5.06-11.29,11.29c0,6.24,5.06,11.29,11.29,11.29
				c6.24,0,11.29-5.06,11.29-11.29C292.12,238.41,287.07,233.35,280.83,233.35z M277.55,250.96c-2.09,0.31-4.03-1.12-4.35-3.21
				c-0.31-2.09,1.12-4.03,3.21-4.35c2.09-0.31,4.03,1.12,4.35,3.21C281.07,248.7,279.64,250.65,277.55,250.96z"/>
			<circle class="st5" cx="280.8" cy="247.18" r="22.68"/>
			<circle class="st5" cx="208.34" cy="244.69" r="28.03"/>
			<path class="st6" d="M232.6,289.08h29.31c2.23-1.37,3.77-2.85,5.87-4.84l-40.48,0C229,286.18,230.29,287.59,232.6,289.08z"/>
			<path class="st5" d="M344.73,228.66c4.92,0.58,8.82,8.35,8.82,17.82c0,9.86-4.23,17.87-9.43,17.87c-0.06,0-0.12,0-0.18-0.01"/>
			<path class="st5" d="M143.64,262.02c-4.74-0.93-8.44-8.54-8.44-17.78c0-9.86,4.21-17.87,9.41-17.87c0.13,0,0.27,0,0.4,0.02"/>
			<path class="st5" d="M225.57,283.45h43.93C259.15,296.37,238.46,300.44,225.57,283.45z"/>
		</g>
	</g>
	<g class="st7">
		<g>
			<path class="st8" d="M256.11,346.47l-0.02,7c6.1,4.82,14.93,4.1,20.09-2.06c4.66-5.55,4.52-14.52-1.53-19.26
				c-5.08-3.98-12.05-4.4-18.44,0.19l0.01,1.73c9.11-6.07,20.38-0.58,18.62,8.67c-1.05,5.52-6.62,8.02-10.39,7.49l-0.52-3.75
				L256.11,346.47z"/>
			<circle class="st8" cx="260" cy="339.87" r="3.87"/>
		</g>
	</g>
</g>
</svg>
