<?xml version="1.0" encoding="utf-8"?>
<!-- Generator: Adobe Illustrator 24.0.2, SVG Export Plug-In . SVG Version: 6.00 Build 0)  -->
<svg version="1.1" id="Слой_1" xmlns="http://www.w3.org/2000/svg" xmlns:xlink="http://www.w3.org/1999/xlink" x="0px" y="0px"
	 viewBox="0 0 595.3 595.3" style="enable-background:new 0 0 595.3 595.3;" xml:space="preserve">
<style type="text/css">
	.st0{display:none;}
	.st1{display:inline;fill:#5FAADE;stroke:#FFFFFF;stroke-miterlimit:10;}
	.st2{opacity:0.15;fill:#EF8C16;enable-background:new    ;}
	.st3{opacity:0.25;fill:#EF8C16;enable-background:new    ;}
	.st4{fill:none;stroke:#EF8C16;stroke-width:8;stroke-miterlimit:10;}
	.st5{fill:none;stroke:#EF8C16;stroke-width:8;stroke-miterlimit:10.0003;}
	.st6{opacity:0.6;fill:#EF8C16;enable-background:new    ;}
	.st7{fill:none;}
</style>
<g id="Слой_1_1_" class="st0">
	<rect y="0" class="st1" width="595.3" height="595.3"/>
</g>
<circle class="st2" cx="406.1" cy="205.1" r="112.1"/>
<circle class="st2" cx="271.3" cy="299.2" r="194.3"/>
<circle class="st3" cx="152.7" cy="184.8" r="13.9"/>
<circle class="st3" cx="187.1" cy="164.6" r="11.9"/>
<circle class="st3" cx="189.2" cy="195.5" r="8"/>
<circle class="st2" cx="398.2" cy="446.3" r="39"/>
<g>
	<path class="st4" d="M488,315.3v-36l-39.7-2.5c-2.6-16.1-8.5-31-17.1-44.1l26.9-30.5l-25.5-25.5l-29.8,26.3
		c-12.7-9.2-27.4-15.8-43.3-19.1v0h0.8l-0.8-0.9l-2.5-39.7h-36l-3.2,39.8c-15.8,2.6-30.5,8.5-43.3,17l-30.5-26.9l-25.5,25.5
		l26.3,29.8c-9.2,12.7-15.8,27.4-19.1,43.3l-40.6,2.6v36l39.7,2.5c2.6,16.1,8.5,31,17.1,44.1l-26.9,30.5l25.5,25.5l29.8-26.3
		c12.7,9.2,27.4,15.8,43.3,19.1l2.6,40.6h36l2.5-39.7c16.1-2.6,31-8.5,44.1-17.1l30.5,26.9l25.5-25.5l-26.3-29.8
		c9.2-12.7,15.8-27.4,19.1-43.3L488,315.3z M336.5,327.5c-18,0-32.7-14.6-32.7-32.7s14.6-32.7,32.7-32.7s32.7,14.6,32.7,32.7
		S354.5,327.5,336.5,327.5z"/>
	<ellipse class="st5" cx="336.5" cy="294.8" rx="32.7" ry="32.7"/>
</g>
<path class="st6" d="M308.5,402.3v-27.5l-30.3-1.9c-2-12.3-6.5-23.7-13.1-33.7l20.5-23.3l-19.5-19.5l-22.8,20.1
	c-9.7-7-20.9-12.1-33.1-14.6v0h0.6l-0.6-0.7l-1.9-30.3h-27.5l-2.4,30.4c-12.1,2-23.3,6.5-33.1,13L122,293.7l-19.5,19.5l20.1,22.8
	c-7,9.7-12.1,20.9-14.6,33.1l-31,2v27.5l30.3,1.9c2,12.3,6.5,23.7,13.1,33.7l-20.5,23.3l19.5,19.5l22.8-20.1
	c9.7,7,20.9,12.1,33.1,14.6l2,31h27.5l1.9-30.3c12.3-2,23.7-6.5,33.7-13.1l23.3,20.5l19.5-19.5l-20.1-22.8
	c7-9.7,12.1-20.9,14.6-33.1L308.5,402.3z M192.7,411.6c-13.8,0-24.9-11.2-24.9-25s11.2-25,24.9-25s24.9,11.2,24.9,25
	C217.7,400.4,206.5,411.6,192.7,411.6z"/>
<ellipse class="st7" cx="373.2" cy="260.7" rx="25" ry="25"/>
</svg>
