<?xml version="1.0" encoding="utf-8"?>
<!-- Generator: Adobe Illustrator 24.0.2, SVG Export Plug-In . SVG Version: 6.00 Build 0)  -->
<svg version="1.1" xmlns="http://www.w3.org/2000/svg" xmlns:xlink="http://www.w3.org/1999/xlink" x="0px" y="0px"
	 viewBox="0 0 595.28 595.28" style="enable-background:new 0 0 595.28 595.28;" xml:space="preserve">
<style type="text/css">
	.st0{display:none;fill:#5FAADE;stroke:#FFFFFF;stroke-miterlimit:10;}
	.st1{opacity:0.1;fill:#FFFFFF;}
	.st2{opacity:0.2;fill:#FFFFFF;}
	.st3{fill:none;stroke:#FFFFFF;stroke-width:7;stroke-miterlimit:10;}
	.st4{opacity:0.6;fill:#FFFFFF;}
	.st5{fill:none;}
</style>
<g id="Слой_1">
	<rect class="st0" width="595.28" height="595.28"/>
</g>
<g id="Слой_2">
	<g>
		<circle class="st1" cx="406.14" cy="205.06" r="112.13"/>
		<circle class="st1" cx="271.3" cy="299.23" r="194.29"/>
		<g>
			<circle class="st2" cx="154.95" cy="186.39" r="13.93"/>
			<circle class="st2" cx="189.38" cy="166.18" r="11.89"/>
			<circle class="st2" cx="191.51" cy="197.1" r="7.96"/>
		</g>
		<circle class="st1" cx="398.18" cy="446.31" r="39.02"/>
		<g>
			<path class="st3" d="M487.95,315.34v-36.03l-39.66-2.45c-2.57-16.08-8.52-31.03-17.1-44.1l26.89-30.53l-25.48-25.48l-29.78,26.32
				c-12.7-9.19-27.37-15.82-43.27-19.11v-0.03h0.78l-0.84-0.86l-2.51-39.7h-36.03l-3.21,39.79c-15.79,2.63-30.48,8.53-43.34,16.98
				l-30.53-26.9l-25.48,25.48l26.32,29.78c-9.19,12.7-15.82,27.37-19.11,43.27l-40.59,2.57v36.03l39.66,2.45
				c2.57,16.08,8.52,31.03,17.1,44.1l-26.89,30.53l25.48,25.48l29.78-26.32c12.7,9.19,27.37,15.82,43.27,19.11l2.57,40.59h36.03
				l2.45-39.66c16.08-2.57,31.03-8.52,44.1-17.1l30.53,26.89l25.48-25.47l-26.32-29.79c9.19-12.69,15.82-27.37,19.11-43.27
				L487.95,315.34z M336.48,327.5c-18.04,0-32.66-14.62-32.66-32.66c0-18.04,14.62-32.66,32.66-32.66s32.66,14.62,32.66,32.66
				C369.14,312.88,354.52,327.5,336.48,327.5z"/>
			
				<ellipse transform="matrix(0.9239 -0.3827 0.3827 0.9239 -87.2158 151.2085)" class="st3" cx="336.48" cy="294.84" rx="32.66" ry="32.66"/>
		</g>
		<path class="st4" d="M308.48,402.27v-27.53l-30.3-1.87c-1.96-12.29-6.51-23.71-13.07-33.7l20.55-23.33l-19.47-19.47l-22.75,20.11
			c-9.7-7.02-20.91-12.09-33.06-14.6v-0.02h0.6l-0.64-0.66l-1.92-30.33h-27.53l-2.45,30.4c-12.06,2.01-23.29,6.52-33.12,12.97
			l-23.33-20.55l-19.47,19.47l20.11,22.75c-7.02,9.7-12.09,20.91-14.6,33.06L77,370.94v27.53l30.3,1.87
			c1.96,12.29,6.51,23.71,13.07,33.7l-20.55,23.33l19.47,19.47l22.75-20.11c9.7,7.02,20.91,12.09,33.06,14.6l1.96,31.01h27.53
			l1.87-30.3c12.29-1.96,23.71-6.51,33.7-13.07l23.33,20.55l19.47-19.46l-20.11-22.76c7.02-9.7,12.09-20.91,14.6-33.06
			L308.48,402.27z M192.74,411.56c-13.78,0-24.95-11.17-24.95-24.95c0-13.78,11.17-24.95,24.95-24.95
			c13.78,0,24.95,11.17,24.95,24.95C217.7,400.39,206.52,411.56,192.74,411.56z"/>
		
			<ellipse transform="matrix(0.9239 -0.3827 0.3827 0.9239 -71.3581 162.6727)" class="st5" cx="373.23" cy="260.71" rx="24.95" ry="24.95"/>
	</g>
</g>
</svg>
